# Blender v3.2.1 OBJ File: 'floortile.blend'
# www.blender.org
mtllib endleft.mtl
o Cube_Cube.001
v 0.312500 -0.312500 0.312500
v -0.312500 -0.312500 0.312500
v 0.312500 -0.312500 -0.312500
v -0.312500 -0.312500 -0.312500
v 0.312500 0.312500 0.312500
v -0.312500 0.312500 0.312500
v 0.312500 0.312500 -0.312500
v -0.312500 0.312500 -0.312500
vt 0.640625 0.375000
vt 0.796875 0.375000
vt 0.796875 0.531250
vt 0.640625 0.531250
vt 0.796875 0.687500
vt 0.640625 0.687500
vt 0.328125 0.500000
vt 0.484375 0.500000
vt 0.484375 0.656250
vt 0.328125 0.656250
vt 0.640625 0.843750
vt 0.796875 0.843750
vt 0.796875 1.000000
vt 0.640625 1.000000
vt 0.484375 0.687500
vt 0.484375 0.843750
vt 0.953125 0.687500
vt 0.953125 0.843750
vn 0.0000 -1.0000 0.0000
vn 0.0000 0.0000 -1.0000
vn 0.0000 1.0000 0.0000
vn 0.0000 0.0000 1.0000
vn 1.0000 0.0000 0.0000
vn -1.0000 0.0000 0.0000
usemtl blocktexture
s off
f 1/1/1 2/2/1 4/3/1 3/4/1
f 3/4/2 4/3/2 8/5/2 7/6/2
f 7/7/3 8/8/3 6/9/3 5/10/3
f 5/11/4 6/12/4 2/13/4 1/14/4
f 3/15/5 7/6/5 5/11/5 1/16/5
f 8/5/6 4/17/6 2/18/6 6/12/6
