# Blender v3.2.1 OBJ File: 'floortile.blend'
# www.blender.org
mtllib floortile.mtl
o Cube_Cube.001
v 0.312500 -0.312500 0.312500
v -0.312500 -0.312500 0.312500
v 0.312500 -0.312500 -0.312500
v -0.312500 -0.312500 -0.312500
v 0.312500 0.312500 0.312500
v -0.312500 0.312500 0.312500
v 0.312500 0.312500 -0.312500
v -0.312500 0.312500 -0.312500
vt 0.156250 0.375000
vt 0.312500 0.375000
vt 0.312500 0.531250
vt 0.156250 0.531250
vt 0.312500 0.687500
vt 0.156250 0.687500
vt 0.312500 0.843750
vt 0.156250 0.843750
vt 0.312500 1.000000
vt 0.156250 1.000000
vt -0.000000 0.687500
vt -0.000000 0.843750
vt 0.468750 0.687500
vt 0.468750 0.843750
vn 0.0000 -1.0000 0.0000
vn 0.0000 0.0000 -1.0000
vn 0.0000 1.0000 0.0000
vn 0.0000 0.0000 1.0000
vn 1.0000 0.0000 0.0000
vn -1.0000 0.0000 0.0000
usemtl blocktexture
s off
f 1/1/1 2/2/1 4/3/1 3/4/1
f 3/4/2 4/3/2 8/5/2 7/6/2
f 7/6/3 8/5/3 6/7/3 5/8/3
f 5/8/4 6/7/4 2/9/4 1/10/4
f 3/11/5 7/6/5 5/8/5 1/12/5
f 8/5/6 4/13/6 2/14/6 6/7/6
