# Blender v3.3.1 OBJ File: 'new_dice.blend'
# www.blender.org
mtllib new_dice.mtl
o Cube_Cube.001
v 0.250000 0.312500 -0.250000
v 0.250000 0.312500 0.250000
v -0.250000 0.312500 -0.250000
v -0.250000 0.312500 0.250000
v -0.250000 -0.312500 -0.250000
v -0.250000 -0.312500 0.250000
v 0.250000 -0.312500 -0.250000
v 0.250000 -0.312500 0.250000
v 0.250000 0.250000 0.312500
v 0.250000 -0.250000 0.312500
v -0.250000 0.250000 0.312500
v -0.250000 -0.250000 0.312500
v -0.250000 0.250000 -0.312500
v -0.250000 -0.250000 -0.312500
v 0.250000 0.250000 -0.312500
v 0.250000 -0.250000 -0.312500
v 0.312500 0.250000 -0.250000
v 0.312500 -0.250000 -0.250000
v 0.312500 0.250000 0.250000
v 0.312500 -0.250000 0.250000
v -0.312500 0.250000 0.250000
v -0.312500 -0.250000 0.250000
v -0.312500 0.250000 -0.250000
v -0.312500 -0.250000 -0.250000
vt 0.156250 0.515625
vt 0.171875 0.515625
vt 0.171875 0.531250
vt 0.312500 0.828125
vt 0.296875 0.843750
vt 0.296875 0.828125
vt 0.296875 0.984375
vt 0.296875 1.000000
vt 0.171875 1.000000
vt 0.171875 0.984375
vt 0.156250 0.828125
vt 0.171875 0.828125
vt 0.171875 0.843750
vt 0.312500 0.390625
vt 0.296875 0.390625
vt 0.296875 0.375000
vt 0.015625 0.703125
vt 0.140625 0.703125
vt 0.140625 0.828125
vt 0.015625 0.828125
vt 0.296875 0.531250
vt 0.296875 0.546875
vt 0.171875 0.546875
vt 0.312500 0.703125
vt 0.296875 0.703125
vt 0.296875 0.687500
vt 0.156250 0.390625
vt 0.171875 0.390625
vt 0.328125 0.828125
vt 0.328125 0.703125
vt 0.453125 0.703125
vt 0.453125 0.828125
vt 0.171875 0.375000
vt 0.156250 0.703125
vt 0.171875 0.703125
vt 0.296875 0.515625
vt 0.171875 0.390625
vt 0.312500 0.515625
vt 0.296875 0.515625
vt 0.296875 0.828125
vt 0.171875 0.828125
vt 0.171875 0.703125
vt 0.296875 0.703125
vt 0.296875 0.531250
vt 0.171875 0.687500
vt 0.296875 0.671875
vt 0.171875 0.671875
vt 0.171875 0.546875
vt 0.296875 0.546875
vt 0.171875 0.671875
vt 0.296875 0.671875
vt 0.171875 0.687500
vt 0.296875 0.984375
vt 0.296875 0.859375
vt 0.171875 0.859375
vt 0.171875 0.984375
vt 0.296875 0.843750
vt 0.296875 0.859375
vt 0.171875 0.859375
vt 0.171875 0.843750
vn -0.6882 -0.2200 -0.6914
vn -0.2230 -0.7253 -0.6513
vn -0.7179 -0.6646 -0.2070
vn 0.7179 0.2070 0.6646
vn 0.7056 0.6733 0.2206
vn 0.2346 0.6920 0.6827
vn -0.2407 -0.4419 0.8642
vn -0.0839 -0.9235 0.3744
vn 0.2688 -0.8465 0.4596
vn 0.0839 -0.3744 0.9235
vn 0.7087 -0.2208 0.6701
vn 0.2208 -0.7087 0.6701
vn 0.7850 -0.5757 0.2288
vn -0.7087 0.2208 0.6701
vn -0.2264 0.6321 0.7411
vn -0.7623 0.5970 0.2500
vn -0.1443 -0.9291 0.3404
vn -0.2986 -0.9235 -0.2407
vn 0.3882 -0.9177 -0.0839
vn 0.2688 -0.9235 0.2736
vn -0.2407 -0.8642 -0.4419
vn -0.3404 -0.5549 -0.7590
vn 0.2736 -0.4629 -0.8431
vn 0.2381 -0.8737 -0.4241
vn 0.7253 0.2230 -0.6513
vn 0.2206 0.6733 -0.7057
vn 0.7487 0.6162 -0.2444
vn -0.7083 -0.5896 -0.3882
vn -0.4241 -0.8737 -0.2381
vn -0.5043 -0.8017 0.3208
vn -0.8465 -0.4596 0.2688
vn 0.3247 0.9291 0.1770
vn 0.2986 0.9235 -0.2407
vn -0.3180 0.9177 -0.2381
vn -0.3208 0.9235 0.2103
vn -0.7850 -0.2289 0.5757
vn -0.6914 -0.6882 0.2200
vn -0.2070 -0.6646 0.7179
vn 0.4828 -0.8232 -0.2986
vn 0.8232 -0.4828 -0.2986
vn 0.8977 -0.4163 0.1443
vn 0.3744 -0.9235 0.0839
vn -0.9177 0.2381 -0.3179
vn -0.9235 -0.1778 -0.3398
vn -0.9291 -0.1770 0.3246
vn -0.9235 0.3208 0.2103
vn -0.7821 0.5318 0.3247
vn -0.4274 0.8866 0.1770
vn -0.4127 0.8933 -0.1778
vn -0.8232 0.4828 -0.2986
vn -0.8431 0.2736 0.4630
vn -0.7350 -0.3529 0.5790
vn -0.5273 -0.3398 0.7788
vn -0.4806 0.3179 0.8173
vn 0.9177 0.0839 0.3882
vn 0.9235 -0.2459 0.2943
vn 0.9291 -0.2684 -0.2543
vn 0.9235 0.2986 -0.2407
vn 0.4449 0.8612 0.2459
vn 0.8017 0.5044 0.3208
vn 0.8173 0.4806 -0.3180
vn 0.4771 0.8368 -0.2684
vn -0.7411 0.6321 -0.2264
vn -0.2400 0.6351 -0.7342
vn -0.7342 0.2400 -0.6350
vn 0.7591 -0.3404 -0.5549
vn 0.4792 -0.2943 -0.8269
vn 0.5896 0.3882 -0.7083
vn 0.8232 0.2986 -0.4828
vn 0.3179 0.2381 -0.9177
vn 0.3398 -0.1778 -0.9235
vn -0.3404 -0.1443 -0.9291
vn -0.2986 0.2407 -0.9235
vn 0.1770 0.4274 -0.8866
vn -0.2103 0.4262 -0.8798
vn -0.1443 0.8977 -0.4163
vn 0.1778 0.8933 -0.4127
vn -0.5318 -0.3246 -0.7822
vn -0.7788 -0.3398 -0.5273
vn -0.8173 0.3179 -0.4806
vn -0.4262 0.2103 -0.8798
vn -0.3883 0.0839 0.9177
vn -0.2943 -0.2459 0.9235
vn 0.3529 -0.1103 0.9291
vn 0.2736 0.2688 0.9235
vn 0.2407 0.4419 0.8642
vn 0.1103 0.9066 0.4074
vn -0.2459 0.8612 0.4449
vn -0.2381 0.4241 0.8738
vn 0.7087 -0.6701 -0.2208
vn 0.2289 -0.5757 -0.7850
vn 0.6162 -0.2444 -0.7487
vn 0.4419 0.2407 0.8642
vn 0.4672 -0.2543 0.8468
vn 0.8269 -0.2943 0.4791
vn 0.7083 0.3883 0.5896
usemtl dicetexture.001
s off
f 5/1/1 24/2/2 14/3/3
f 2/4/4 9/5/5 19/6/6
f 8/7/7 10/8/8 12/9/9 6/10/10
f 8/11/11 20/12/12 10/13/13
f 4/14/14 21/15/15 11/16/16
f 7/17/17 8/18/18 6/19/19 5/20/20
f 16/21/21 7/22/22 5/23/23 14/3/24
f 1/24/25 17/25/26 15/26/27
f 6/27/28 22/28/29 24/2/30 5/1/31
f 3/29/32 4/30/33 2/31/34 1/32/35
f 6/27/36 12/33/37 22/28/38
f 20/12/39 8/11/40 7/34/41 18/35/42
f 22/36/43 21/15/44 23/37/45 24/2/46
f 3/38/47 23/39/48 21/15/49 4/14/50
f 12/33/51 11/16/52 21/15/53 22/28/54
f 18/40/55 17/41/56 19/42/57 20/43/58
f 17/25/59 1/24/60 2/4/61 19/6/62
f 13/44/63 23/39/64 3/38/65
f 15/26/66 17/25/67 18/35/68 16/45/69
f 14/46/70 13/47/71 15/48/72 16/49/73
f 3/50/74 1/51/75 15/26/76 13/52/77
f 23/39/78 13/44/79 14/3/80 24/2/81
f 10/53/82 9/54/83 11/55/84 12/56/85
f 4/57/86 11/58/87 9/59/88 2/60/89
f 16/45/90 18/35/91 7/34/92
f 20/12/93 19/6/94 9/5/95 10/13/96
