# MagicaVoxel @ Ephtracy

# group
o 

# material
mtllib plus.mtl
usemtl palette

# normals
vn -1 0 0
vn 1 0 0
vn 0 0 1
vn 0 0 -1
vn 0 -1 0
vn 0 1 0

# texcoords
vt 0.00585938 0.5
vt 0.00976563 0.5

# verts
v -0.4 0 0.1
v -0.4 0 0
v -0.4 0 -0.1
v -0.4 0.1 0.1
v -0.4 0.1 0
v -0.4 0.1 -0.1
v -0.1 0 0.4
v -0.1 0 0.2
v -0.1 0 0.1
v -0.1 0 -0.1
v -0.1 0 -0.2
v -0.1 0 -0.3
v -0.1 0 -0.4
v -0.1 0.1 0.4
v -0.1 0.1 0.2
v -0.1 0.1 0.1
v -0.1 0.1 -0.1
v -0.1 0.1 -0.2
v -0.1 0.1 -0.3
v -0.1 0.1 -0.4
v 0.1 0 0.4
v 0.1 0 0.3
v 0.1 0 0.2
v 0.1 0 0.1
v 0.1 0 -0.1
v 0.1 0 -0.2
v 0.1 0 -0.4
v 0.1 0.1 0.4
v 0.1 0.1 0.3
v 0.1 0.1 0.2
v 0.1 0.1 0.1
v 0.1 0.1 -0.1
v 0.1 0.1 -0.2
v 0.1 0.1 -0.4
v 0.4 0 0.1
v 0.4 0 0
v 0.4 0 -0.1
v 0.4 0.1 0.1
v 0.4 0.1 0
v 0.4 0.1 -0.1
v -0.1 0 0.4
v -0.1 0.1 0.4
v 0 0 0.4
v 0 0.1 0.4
v 0.1 0 0.4
v 0.1 0.1 0.4
v -0.4 0 0.1
v -0.4 0.1 0.1
v -0.1 0 0.1
v -0.1 0.1 0.1
v 0.1 0 0.1
v 0.1 0.1 0.1
v 0.3 0 0.1
v 0.3 0.1 0.1
v 0.4 0 0.1
v 0.4 0.1 0.1
v -0.4 0 -0.1
v -0.4 0.1 -0.1
v -0.3 0 -0.1
v -0.3 0.1 -0.1
v -0.1 0 -0.1
v -0.1 0.1 -0.1
v 0.1 0 -0.1
v 0.1 0.1 -0.1
v 0.4 0 -0.1
v 0.4 0.1 -0.1
v -0.1 0 -0.4
v -0.1 0.1 -0.4
v 0 0 -0.4
v 0 0.1 -0.4
v 0.1 0 -0.4
v 0.1 0.1 -0.4
v -0.1 0 0.4
v 0 0 0.4
v 0.1 0 0.4
v 0 0 0.3
v 0.1 0 0.3
v -0.1 0 0.2
v 0.1 0 0.2
v -0.4 0 0.1
v -0.1 0 0.1
v 0.1 0 0.1
v 0.3 0 0.1
v 0.4 0 0.1
v -0.4 0 0
v -0.3 0 0
v 0.3 0 0
v 0.4 0 0
v -0.4 0 -0.1
v -0.3 0 -0.1
v -0.1 0 -0.1
v 0.1 0 -0.1
v 0.4 0 -0.1
v -0.1 0 -0.2
v 0.1 0 -0.2
v -0.1 0 -0.3
v 0 0 -0.3
v -0.1 0 -0.4
v 0 0 -0.4
v 0.1 0 -0.4
v -0.1 0.1 0.4
v 0 0.1 0.4
v 0.1 0.1 0.4
v 0 0.1 0.3
v 0.1 0.1 0.3
v -0.1 0.1 0.2
v 0.1 0.1 0.2
v -0.4 0.1 0.1
v -0.1 0.1 0.1
v 0.1 0.1 0.1
v 0.3 0.1 0.1
v 0.4 0.1 0.1
v -0.4 0.1 0
v -0.3 0.1 0
v 0.3 0.1 0
v 0.4 0.1 0
v -0.4 0.1 -0.1
v -0.3 0.1 -0.1
v -0.1 0.1 -0.1
v 0.1 0.1 -0.1
v 0.4 0.1 -0.1
v -0.1 0.1 -0.2
v 0.1 0.1 -0.2
v -0.1 0.1 -0.3
v 0 0.1 -0.3
v -0.1 0.1 -0.4
v 0 0.1 -0.4
v 0.1 0.1 -0.4

# faces
f 4/1/1 2/1/1 1/1/1
f 5/2/1 3/2/1 2/2/1
f 5/1/1 2/1/1 4/1/1
f 6/2/1 3/2/1 5/2/1
f 14/1/1 8/1/1 7/1/1
f 15/2/1 9/2/1 8/2/1
f 15/1/1 8/1/1 14/1/1
f 16/2/1 9/2/1 15/2/1
f 17/2/1 11/2/1 10/2/1
f 18/1/1 12/1/1 11/1/1
f 18/2/1 11/2/1 17/2/1
f 19/2/1 13/2/1 12/2/1
f 19/1/1 12/1/1 18/1/1
f 20/2/1 13/2/1 19/2/1
f 21/2/2 22/2/2 28/2/2
f 22/1/2 23/1/2 29/1/2
f 28/2/2 22/2/2 29/2/2
f 23/2/2 24/2/2 30/2/2
f 29/1/2 23/1/2 30/1/2
f 30/2/2 24/2/2 31/2/2
f 25/2/2 26/2/2 32/2/2
f 26/1/2 27/1/2 33/1/2
f 32/2/2 26/2/2 33/2/2
f 33/1/2 27/1/2 34/1/2
f 35/2/2 36/2/2 38/2/2
f 36/1/2 37/1/2 39/1/2
f 38/2/2 36/2/2 39/2/2
f 39/1/2 37/1/2 40/1/2
f 43/1/3 42/1/3 41/1/3
f 44/1/3 42/1/3 43/1/3
f 45/2/3 44/2/3 43/2/3
f 46/2/3 44/2/3 45/2/3
f 49/1/3 48/1/3 47/1/3
f 50/1/3 48/1/3 49/1/3
f 53/1/3 52/1/3 51/1/3
f 54/1/3 52/1/3 53/1/3
f 55/2/3 54/2/3 53/2/3
f 56/2/3 54/2/3 55/2/3
f 57/2/4 58/2/4 59/2/4
f 59/2/4 58/2/4 60/2/4
f 59/1/4 60/1/4 61/1/4
f 61/1/4 60/1/4 62/1/4
f 63/1/4 64/1/4 65/1/4
f 65/1/4 64/1/4 66/1/4
f 67/2/4 68/2/4 69/2/4
f 69/2/4 68/2/4 70/2/4
f 69/1/4 70/1/4 71/1/4
f 71/1/4 70/1/4 72/1/4
f 76/1/5 74/1/5 73/1/5
f 76/2/5 75/2/5 74/2/5
f 77/2/5 75/2/5 76/2/5
f 78/1/5 76/1/5 73/1/5
f 78/1/5 77/1/5 76/1/5
f 79/1/5 77/1/5 78/1/5
f 81/2/5 79/2/5 78/2/5
f 82/2/5 79/2/5 81/2/5
f 85/1/5 82/1/5 81/1/5
f 85/1/5 81/1/5 80/1/5
f 85/1/5 83/1/5 82/1/5
f 86/1/5 83/1/5 85/1/5
f 87/2/5 84/2/5 83/2/5
f 87/1/5 83/1/5 86/1/5
f 88/2/5 84/2/5 87/2/5
f 89/2/5 86/2/5 85/2/5
f 90/1/5 87/1/5 86/1/5
f 90/2/5 86/2/5 89/2/5
f 90/1/5 88/1/5 87/1/5
f 91/1/5 88/1/5 90/1/5
f 92/1/5 88/1/5 91/1/5
f 93/1/5 88/1/5 92/1/5
f 94/2/5 92/2/5 91/2/5
f 95/2/5 92/2/5 94/2/5
f 96/1/5 95/1/5 94/1/5
f 97/1/5 95/1/5 96/1/5
f 98/2/5 97/2/5 96/2/5
f 99/1/5 95/1/5 97/1/5
f 99/2/5 97/2/5 98/2/5
f 100/1/5 95/1/5 99/1/5
f 101/1/6 102/1/6 104/1/6
f 102/2/6 103/2/6 104/2/6
f 104/2/6 103/2/6 105/2/6
f 101/1/6 104/1/6 106/1/6
f 104/1/6 105/1/6 106/1/6
f 106/1/6 105/1/6 107/1/6
f 106/2/6 107/2/6 109/2/6
f 109/2/6 107/2/6 110/2/6
f 109/1/6 110/1/6 113/1/6
f 108/1/6 109/1/6 113/1/6
f 110/1/6 111/1/6 113/1/6
f 113/1/6 111/1/6 114/1/6
f 111/2/6 112/2/6 115/2/6
f 114/1/6 111/1/6 115/1/6
f 115/2/6 112/2/6 116/2/6
f 113/2/6 114/2/6 117/2/6
f 114/1/6 115/1/6 118/1/6
f 117/2/6 114/2/6 118/2/6
f 115/1/6 116/1/6 118/1/6
f 118/1/6 116/1/6 119/1/6
f 119/1/6 116/1/6 120/1/6
f 120/1/6 116/1/6 121/1/6
f 119/2/6 120/2/6 122/2/6
f 122/2/6 120/2/6 123/2/6
f 122/1/6 123/1/6 124/1/6
f 124/1/6 123/1/6 125/1/6
f 124/2/6 125/2/6 126/2/6
f 125/1/6 123/1/6 127/1/6
f 126/2/6 125/2/6 127/2/6
f 127/1/6 123/1/6 128/1/6
