# Blender v3.2.1 OBJ File: 'chip.blend'
# www.blender.org
mtllib rainbowchip.mtl
o Cylinder.009
v 0.127252 -0.312500 0.292951
v 0.127252 -0.250000 0.292951
v -0.125800 -0.312500 0.341643
v -0.125800 -0.250000 0.341643
v -0.287846 -0.312500 0.141275
v -0.287846 -0.250000 0.141275
v -0.336538 -0.312500 -0.111777
v -0.336538 -0.250000 -0.111777
v -0.136170 -0.312500 -0.273823
v -0.136170 -0.250000 -0.273823
v 0.116882 -0.312500 -0.322515
v 0.116882 -0.250000 -0.322515
v 0.278928 -0.312500 -0.122147
v 0.278928 -0.250000 -0.122147
v 0.327620 -0.312500 0.130905
v 0.327620 -0.250000 0.130905
v 0.086830 -0.250000 0.308433
v 0.086830 -0.187500 0.308433
v -0.170523 -0.250000 0.321690
v -0.170523 -0.187500 0.321690
v -0.303328 -0.250000 0.100853
v -0.303328 -0.187500 0.100853
v -0.316585 -0.250000 -0.156500
v -0.316585 -0.187500 -0.156500
v -0.095748 -0.250000 -0.289305
v -0.095748 -0.187500 -0.289305
v 0.161605 -0.250000 -0.302562
v 0.161605 -0.187500 -0.302562
v 0.294410 -0.250000 -0.081725
v 0.294410 -0.187500 -0.081725
v 0.307667 -0.250000 0.175628
v 0.307667 -0.187500 0.175628
v 0.307426 -0.187500 0.029159
v 0.307426 -0.125000 0.029159
v 0.229373 -0.187500 0.274748
v 0.229373 -0.125000 0.274748
v -0.024054 -0.187500 0.321449
v -0.024054 -0.125000 0.321449
v -0.269643 -0.187500 0.243396
v -0.269643 -0.125000 0.243396
v -0.316344 -0.187500 -0.010031
v -0.316344 -0.125000 -0.010031
v -0.238291 -0.187500 -0.255620
v -0.238291 -0.125000 -0.255620
v 0.015136 -0.187500 -0.302321
v 0.015136 -0.125000 -0.302321
v 0.260725 -0.187500 -0.224268
v 0.260725 -0.125000 -0.224268
v -0.252069 -0.125000 0.200209
v -0.252069 -0.062500 0.200209
v -0.355063 -0.125000 -0.036008
v -0.355063 -0.062500 -0.036008
v -0.195104 -0.125000 -0.238046
v -0.195104 -0.062500 -0.238046
v 0.041112 -0.125000 -0.341040
v 0.041112 -0.062500 -0.341040
v 0.243151 -0.125000 -0.181081
v 0.243151 -0.062500 -0.181081
v 0.346145 -0.125000 0.055136
v 0.346145 -0.062500 0.055136
v 0.186186 -0.125000 0.257174
v 0.186186 -0.062500 0.257174
v -0.050031 -0.125000 0.360168
v -0.050031 -0.062500 0.360168
v -0.015360 -0.062500 0.321874
v -0.015360 0.000000 0.321874
v -0.263028 -0.062500 0.250691
v -0.263028 0.000000 0.250691
v -0.316769 -0.062500 -0.001337
v -0.316769 0.000000 -0.001337
v -0.245586 -0.062500 -0.249005
v -0.245586 0.000000 -0.249005
v 0.006442 -0.062500 -0.302746
v 0.006442 0.000000 -0.302746
v 0.254110 -0.062500 -0.231563
v 0.254110 0.000000 -0.231563
v 0.307851 -0.062500 0.020465
v 0.307851 0.000000 0.020465
v 0.236668 -0.062500 0.268133
v 0.236668 0.000000 0.268133
vt 0.859375 0.812500
vt 0.859375 0.828125
vt 0.796875 0.828125
vt 0.796875 0.812500
vt 0.734375 0.828125
vt 0.734375 0.812500
vt 0.671875 0.828125
vt 0.671875 0.812500
vt 0.609375 0.828125
vt 0.609375 0.812500
vt 0.546875 0.828125
vt 0.546875 0.812500
vt 0.484375 0.828125
vt 0.484375 0.812500
vt 0.546875 0.812500
vt 0.546875 0.828125
vt 0.609375 0.984375
vt 0.546875 1.000000
vt 0.484375 0.984375
vt 0.468750 0.921875
vt 0.484375 0.859375
vt 0.546875 0.843750
vt 0.609375 0.859375
vt 0.625000 0.921875
vt 0.984375 0.812500
vt 0.984375 0.828125
vt 0.921875 0.828125
vt 0.921875 0.812500
vt 0.718750 1.000000
vt 0.781250 0.984375
vt 0.796875 0.921875
vt 0.781250 0.859375
vt 0.718750 0.843750
vt 0.656250 0.859375
vt 0.640625 0.921875
vt 0.656250 0.984375
vt 0.859375 0.812500
vt 0.859375 0.828125
vt 0.796875 0.828125
vt 0.796875 0.812500
vt 0.734375 0.828125
vt 0.734375 0.812500
vt 0.671875 0.828125
vt 0.671875 0.812500
vt 0.609375 0.828125
vt 0.609375 0.812500
vt 0.546875 0.828125
vt 0.546875 0.812500
vt 0.484375 0.828125
vt 0.484375 0.812500
vt 0.546875 0.812500
vt 0.546875 0.828125
vt 0.609375 0.984375
vt 0.546875 1.000000
vt 0.484375 0.984375
vt 0.468750 0.921875
vt 0.484375 0.859375
vt 0.546875 0.843750
vt 0.609375 0.859375
vt 0.625000 0.921875
vt 0.984375 0.812500
vt 0.984375 0.828125
vt 0.921875 0.828125
vt 0.921875 0.812500
vt 0.718750 1.000000
vt 0.781250 0.984375
vt 0.796875 0.921875
vt 0.781250 0.859375
vt 0.718750 0.843750
vt 0.656250 0.859375
vt 0.640625 0.921875
vt 0.656250 0.984375
vt 0.859375 0.812500
vt 0.859375 0.828125
vt 0.796875 0.828125
vt 0.796875 0.812500
vt 0.734375 0.828125
vt 0.734375 0.812500
vt 0.671875 0.828125
vt 0.671875 0.812500
vt 0.609375 0.828125
vt 0.609375 0.812500
vt 0.546875 0.828125
vt 0.546875 0.812500
vt 0.484375 0.828125
vt 0.484375 0.812500
vt 0.546875 0.812500
vt 0.546875 0.828125
vt 0.609375 0.984375
vt 0.546875 1.000000
vt 0.484375 0.984375
vt 0.468750 0.921875
vt 0.484375 0.859375
vt 0.546875 0.843750
vt 0.609375 0.859375
vt 0.625000 0.921875
vt 0.984375 0.812500
vt 0.984375 0.828125
vt 0.921875 0.828125
vt 0.921875 0.812500
vt 0.718750 1.000000
vt 0.781250 0.984375
vt 0.796875 0.921875
vt 0.781250 0.859375
vt 0.718750 0.843750
vt 0.656250 0.859375
vt 0.640625 0.921875
vt 0.656250 0.984375
vt 0.859375 0.812500
vt 0.859375 0.828125
vt 0.796875 0.828125
vt 0.796875 0.812500
vt 0.734375 0.828125
vt 0.734375 0.812500
vt 0.671875 0.828125
vt 0.671875 0.812500
vt 0.609375 0.828125
vt 0.609375 0.812500
vt 0.546875 0.828125
vt 0.546875 0.812500
vt 0.484375 0.828125
vt 0.484375 0.812500
vt 0.546875 0.812500
vt 0.546875 0.828125
vt 0.609375 0.984375
vt 0.546875 1.000000
vt 0.484375 0.984375
vt 0.468750 0.921875
vt 0.484375 0.859375
vt 0.546875 0.843750
vt 0.609375 0.859375
vt 0.625000 0.921875
vt 0.984375 0.812500
vt 0.984375 0.828125
vt 0.921875 0.828125
vt 0.921875 0.812500
vt 0.718750 1.000000
vt 0.781250 0.984375
vt 0.796875 0.921875
vt 0.781250 0.859375
vt 0.718750 0.843750
vt 0.656250 0.859375
vt 0.640625 0.921875
vt 0.656250 0.984375
vt 0.859375 0.812500
vt 0.859375 0.828125
vt 0.796875 0.828125
vt 0.796875 0.812500
vt 0.734375 0.828125
vt 0.734375 0.812500
vt 0.656250 0.828125
vt 0.656250 0.812500
vt 0.718750 0.812500
vt 0.718750 0.828125
vt 0.671875 0.812500
vt 0.671875 0.828125
vt 0.609375 0.828125
vt 0.609375 0.812500
vt 0.546875 0.828125
vt 0.546875 0.812500
vt 0.484375 0.828125
vt 0.484375 0.812500
vt 0.546875 0.812500
vt 0.546875 0.828125
vt 0.609375 0.984375
vt 0.546875 1.000000
vt 0.484375 0.984375
vt 0.468750 0.921875
vt 0.484375 0.859375
vt 0.546875 0.843750
vt 0.609375 0.859375
vt 0.625000 0.921875
vt 0.984375 0.812500
vt 0.984375 0.828125
vt 0.921875 0.828125
vt 0.921875 0.812500
vt 0.718750 1.000000
vt 0.781250 0.984375
vt 0.796875 0.921875
vt 0.781250 0.859375
vt 0.718750 0.843750
vt 0.656250 0.859375
vt 0.640625 0.921875
vt 0.656250 0.984375
vn 0.1890 0.0000 0.9820
vn -0.7775 0.0000 0.6288
vn -0.9820 0.0000 0.1890
vn -0.6288 0.0000 -0.7775
vn -0.1890 0.0000 -0.9820
vn 0.7775 0.0000 -0.6288
vn 0.0000 1.0000 0.0000
vn 0.9820 0.0000 -0.1890
vn 0.6288 0.0000 0.7775
vn 0.0000 -1.0000 -0.0000
vn 0.0514 0.0000 0.9987
vn -0.8570 0.0000 0.5154
vn -0.9987 0.0000 0.0514
vn -0.5154 0.0000 -0.8570
vn -0.0514 0.0000 -0.9987
vn 0.8570 0.0000 -0.5154
vn 0.9987 0.0000 -0.0514
vn 0.5154 0.0000 0.8570
vn 0.9530 0.0000 0.3029
vn 0.1812 0.0000 0.9834
vn -0.3029 0.0000 0.9530
vn -0.9834 0.0000 0.1812
vn -0.9530 0.0000 -0.3029
vn -0.1812 0.0000 -0.9834
vn 0.3029 0.0000 -0.9530
vn 0.9834 0.0000 -0.1812
vn -0.9167 0.0000 0.3997
vn -0.7840 0.0000 -0.6207
vn -0.3997 0.0000 -0.9167
vn 0.6207 0.0000 -0.7840
vn 0.9167 0.0000 -0.3997
vn 0.7840 0.0000 0.6207
vn 0.3997 0.0000 0.9167
vn -0.6207 0.0000 0.7840
vn -0.2762 0.0000 0.9611
vn -0.9780 0.0000 0.2085
vn -0.9611 0.0000 -0.2762
vn -0.2085 0.0000 -0.9780
vn 0.2762 0.0000 -0.9611
vn 0.9780 0.0000 -0.2085
vn 0.9611 0.0000 0.2762
vn 0.2085 0.0000 0.9780
usemtl rainbow
s off
f 1/1/1 2/2/1 4/3/1 3/4/1
f 3/4/2 4/3/2 6/5/2 5/6/2
f 5/6/3 6/5/3 8/7/3 7/8/3
f 7/8/4 8/7/4 10/9/4 9/10/4
f 9/10/5 10/9/5 12/11/5 11/12/5
f 11/13/6 12/14/6 14/15/6 13/16/6
f 4/17/7 2/18/7 16/19/7 14/20/7 12/21/7 10/22/7 8/23/7 6/24/7
f 13/25/8 14/26/8 16/27/8 15/28/8
f 15/28/9 16/27/9 2/2/9 1/1/9
f 1/29/10 3/30/10 5/31/10 7/32/10 9/33/10 11/34/10 13/35/10 15/36/10
f 17/37/11 18/38/11 20/39/11 19/40/11
f 19/40/12 20/39/12 22/41/12 21/42/12
f 21/42/13 22/41/13 24/43/13 23/44/13
f 23/44/14 24/43/14 26/45/14 25/46/14
f 25/46/15 26/45/15 28/47/15 27/48/15
f 27/49/16 28/50/16 30/51/16 29/52/16
f 20/53/7 18/54/7 32/55/7 30/56/7 28/57/7 26/58/7 24/59/7 22/60/7
f 29/61/17 30/62/17 32/63/17 31/64/17
f 31/64/18 32/63/18 18/38/18 17/37/18
f 17/65/10 19/66/10 21/67/10 23/68/10 25/69/10 27/70/10 29/71/10 31/72/10
f 33/73/19 34/74/19 36/75/19 35/76/19
f 35/76/20 36/75/20 38/77/20 37/78/20
f 37/78/21 38/77/21 40/79/21 39/80/21
f 39/80/22 40/79/22 42/81/22 41/82/22
f 41/82/23 42/81/23 44/83/23 43/84/23
f 43/85/24 44/86/24 46/87/24 45/88/24
f 36/89/7 34/90/7 48/91/7 46/92/7 44/93/7 42/94/7 40/95/7 38/96/7
f 45/97/25 46/98/25 48/99/25 47/100/25
f 47/100/26 48/99/26 34/74/26 33/73/26
f 33/101/10 35/102/10 37/103/10 39/104/10 41/105/10 43/106/10 45/107/10 47/108/10
f 49/109/27 50/110/27 52/111/27 51/112/27
f 51/112/28 52/111/28 54/113/28 53/114/28
f 53/114/29 54/113/29 56/115/29 55/116/29
f 55/116/30 56/115/30 58/117/30 57/118/30
f 57/118/31 58/117/31 60/119/31 59/120/31
f 59/121/32 60/122/32 62/123/32 61/124/32
f 52/125/7 50/126/7 64/127/7 62/128/7 60/129/7 58/130/7 56/131/7 54/132/7
f 61/133/33 62/134/33 64/135/33 63/136/33
f 63/136/34 64/135/34 50/110/34 49/109/34
f 49/137/10 51/138/10 53/139/10 55/140/10 57/141/10 59/142/10 61/143/10 63/144/10
f 65/145/35 66/146/35 68/147/35 67/148/35
f 67/148/36 68/147/36 70/149/36 69/150/36
f 69/151/37 70/152/37 72/153/37 71/154/37
f 71/155/38 72/156/38 74/157/38 73/158/38
f 73/158/39 74/157/39 76/159/39 75/160/39
f 75/161/40 76/162/40 78/163/40 77/164/40
f 68/165/7 66/166/7 80/167/7 78/168/7 76/169/7 74/170/7 72/171/7 70/172/7
f 77/173/41 78/174/41 80/175/41 79/176/41
f 79/176/42 80/175/42 66/146/42 65/145/42
f 65/177/10 67/178/10 69/179/10 71/180/10 73/181/10 75/182/10 77/183/10 79/184/10
