# MagicaVoxel @ Ephtracy

# group
o 

# material
mtllib triangle.mtl
usemtl palette

# normals
vn -1 0 0
vn 1 0 0
vn 0 0 1
vn 0 0 -1
vn 0 -1 0
vn 0 1 0

# texcoords
vt 0.0136719 0.5
vt 0.0175781 0.5

# verts
v -0.4 0 0.4
v -0.4 0 0.3
v -0.4 0 -0.3
v -0.4 0 -0.4
v -0.4 0.1 0.4
v -0.4 0.1 0.3
v -0.4 0.1 -0.3
v -0.4 0.1 -0.4
v 0 0 0.1
v 0 0 -0.1
v 0 0.1 0.1
v 0 0.1 -0.1
v -0.2 0 0.4
v -0.2 0 0.3
v -0.2 0 0.1
v -0.2 0 -0.1
v -0.2 0 -0.3
v -0.2 0 -0.4
v -0.2 0.1 0.4
v -0.2 0.1 0.3
v -0.2 0.1 0.1
v -0.2 0.1 -0.1
v -0.2 0.1 -0.3
v -0.2 0.1 -0.4
v 0 0 0.3
v 0 0 0.2
v 0 0 -0.2
v 0 0 -0.3
v 0 0.1 0.3
v 0 0.1 0.2
v 0 0.1 -0.2
v 0 0.1 -0.3
v 0.2 0 0.2
v 0.2 0 0.1
v 0.2 0 -0.1
v 0.2 0 -0.2
v 0.2 0.1 0.2
v 0.2 0.1 0.1
v 0.2 0.1 -0.1
v 0.2 0.1 -0.2
v 0.4 0 0.1
v 0.4 0 -0.1
v 0.4 0.1 0.1
v 0.4 0.1 -0.1
v -0.4 0 0.4
v -0.4 0.1 0.4
v -0.3 0 0.4
v -0.3 0.1 0.4
v -0.2 0 0.4
v -0.2 0.1 0.4
v -0.2 0 0.3
v -0.2 0.1 0.3
v 0 0 0.3
v 0 0.1 0.3
v 0 0 0.2
v 0 0.1 0.2
v 0.2 0 0.2
v 0.2 0.1 0.2
v 0.2 0 0.1
v 0.2 0.1 0.1
v 0.3 0 0.1
v 0.3 0.1 0.1
v 0.4 0 0.1
v 0.4 0.1 0.1
v -0.2 0 -0.1
v -0.2 0.1 -0.1
v -0.1 0 -0.1
v -0.1 0.1 -0.1
v 0 0 -0.1
v 0 0.1 -0.1
v -0.2 0 0.1
v -0.2 0.1 0.1
v -0.1 0 0.1
v -0.1 0.1 0.1
v 0 0 0.1
v 0 0.1 0.1
v 0.2 0 -0.1
v 0.2 0.1 -0.1
v 0.3 0 -0.1
v 0.3 0.1 -0.1
v 0.4 0 -0.1
v 0.4 0.1 -0.1
v 0 0 -0.2
v 0 0.1 -0.2
v 0.2 0 -0.2
v 0.2 0.1 -0.2
v -0.2 0 -0.3
v -0.2 0.1 -0.3
v 0 0 -0.3
v 0 0.1 -0.3
v -0.4 0 -0.4
v -0.4 0.1 -0.4
v -0.3 0 -0.4
v -0.3 0.1 -0.4
v -0.2 0 -0.4
v -0.2 0.1 -0.4
v -0.4 0 0.4
v -0.3 0 0.4
v -0.2 0 0.4
v -0.4 0 0.3
v -0.3 0 0.3
v -0.2 0 0.3
v 0 0 0.3
v -0.3 0 0.2
v -0.1 0 0.2
v 0 0 0.2
v 0.2 0 0.2
v -0.2 0 0.1
v -0.1 0 0.1
v 0 0 0.1
v 0.1 0 0.1
v 0.2 0 0.1
v 0.3 0 0.1
v 0.4 0 0.1
v -0.2 0 -0.1
v -0.1 0 -0.1
v 0 0 -0.1
v 0.1 0 -0.1
v 0.2 0 -0.1
v 0.3 0 -0.1
v 0.4 0 -0.1
v -0.3 0 -0.2
v -0.1 0 -0.2
v 0 0 -0.2
v 0.2 0 -0.2
v -0.4 0 -0.3
v -0.3 0 -0.3
v -0.2 0 -0.3
v 0 0 -0.3
v -0.4 0 -0.4
v -0.3 0 -0.4
v -0.2 0 -0.4
v -0.4 0.1 0.4
v -0.3 0.1 0.4
v -0.2 0.1 0.4
v -0.4 0.1 0.3
v -0.3 0.1 0.3
v -0.2 0.1 0.3
v 0 0.1 0.3
v -0.3 0.1 0.2
v -0.1 0.1 0.2
v 0 0.1 0.2
v 0.2 0.1 0.2
v -0.2 0.1 0.1
v -0.1 0.1 0.1
v 0 0.1 0.1
v 0.1 0.1 0.1
v 0.2 0.1 0.1
v 0.3 0.1 0.1
v 0.4 0.1 0.1
v -0.2 0.1 -0.1
v -0.1 0.1 -0.1
v 0 0.1 -0.1
v 0.1 0.1 -0.1
v 0.2 0.1 -0.1
v 0.3 0.1 -0.1
v 0.4 0.1 -0.1
v -0.3 0.1 -0.2
v -0.1 0.1 -0.2
v 0 0.1 -0.2
v 0.2 0.1 -0.2
v -0.4 0.1 -0.3
v -0.3 0.1 -0.3
v -0.2 0.1 -0.3
v 0 0.1 -0.3
v -0.4 0.1 -0.4
v -0.3 0.1 -0.4
v -0.2 0.1 -0.4

# faces
f 5/1/1 2/1/1 1/1/1
f 6/2/1 3/2/1 2/2/1
f 6/1/1 2/1/1 5/1/1
f 7/1/1 4/1/1 3/1/1
f 7/2/1 3/2/1 6/2/1
f 8/1/1 4/1/1 7/1/1
f 11/1/1 10/1/1 9/1/1
f 12/1/1 10/1/1 11/1/1
f 13/2/2 14/2/2 19/2/2
f 19/2/2 14/2/2 20/2/2
f 15/1/2 16/1/2 21/1/2
f 21/1/2 16/1/2 22/1/2
f 17/2/2 18/2/2 23/2/2
f 23/2/2 18/2/2 24/2/2
f 25/2/2 26/2/2 29/2/2
f 29/2/2 26/2/2 30/2/2
f 27/2/2 28/2/2 31/2/2
f 31/2/2 28/2/2 32/2/2
f 33/2/2 34/2/2 37/2/2
f 37/2/2 34/2/2 38/2/2
f 35/2/2 36/2/2 39/2/2
f 39/2/2 36/2/2 40/2/2
f 41/1/2 42/1/2 43/1/2
f 43/1/2 42/1/2 44/1/2
f 47/1/3 46/1/3 45/1/3
f 48/1/3 46/1/3 47/1/3
f 49/2/3 48/2/3 47/2/3
f 50/2/3 48/2/3 49/2/3
f 53/2/3 52/2/3 51/2/3
f 54/2/3 52/2/3 53/2/3
f 57/2/3 56/2/3 55/2/3
f 58/2/3 56/2/3 57/2/3
f 61/2/3 60/2/3 59/2/3
f 62/2/3 60/2/3 61/2/3
f 63/1/3 62/1/3 61/1/3
f 64/1/3 62/1/3 63/1/3
f 67/1/3 66/1/3 65/1/3
f 68/1/3 66/1/3 67/1/3
f 69/2/3 68/2/3 67/2/3
f 70/2/3 68/2/3 69/2/3
f 71/1/4 72/1/4 73/1/4
f 73/1/4 72/1/4 74/1/4
f 73/2/4 74/2/4 75/2/4
f 75/2/4 74/2/4 76/2/4
f 77/2/4 78/2/4 79/2/4
f 79/2/4 78/2/4 80/2/4
f 79/1/4 80/1/4 81/1/4
f 81/1/4 80/1/4 82/1/4
f 83/2/4 84/2/4 85/2/4
f 85/2/4 84/2/4 86/2/4
f 87/2/4 88/2/4 89/2/4
f 89/2/4 88/2/4 90/2/4
f 91/1/4 92/1/4 93/1/4
f 93/1/4 92/1/4 94/1/4
f 93/2/4 94/2/4 95/2/4
f 95/2/4 94/2/4 96/2/4
f 100/1/5 98/1/5 97/1/5
f 101/2/5 99/2/5 98/2/5
f 101/1/5 98/1/5 100/1/5
f 102/2/5 99/2/5 101/2/5
f 104/2/5 101/2/5 100/2/5
f 104/2/5 103/2/5 102/2/5
f 104/2/5 102/2/5 101/2/5
f 105/2/5 103/2/5 104/2/5
f 106/2/5 103/2/5 105/2/5
f 108/1/5 105/1/5 104/1/5
f 109/2/5 107/2/5 106/2/5
f 109/1/5 105/1/5 108/1/5
f 109/2/5 106/2/5 105/2/5
f 110/2/5 107/2/5 109/2/5
f 111/2/5 107/2/5 110/2/5
f 112/2/5 107/2/5 111/2/5
f 115/1/5 108/1/5 104/1/5
f 117/1/5 111/1/5 110/1/5
f 118/2/5 113/2/5 112/2/5
f 118/2/5 112/2/5 111/2/5
f 118/1/5 111/1/5 117/1/5
f 119/2/5 113/2/5 118/2/5
f 120/1/5 114/1/5 113/1/5
f 120/2/5 113/2/5 119/2/5
f 121/1/5 114/1/5 120/1/5
f 122/2/5 104/2/5 100/2/5
f 122/1/5 116/1/5 115/1/5
f 122/1/5 115/1/5 104/1/5
f 123/2/5 119/2/5 118/2/5
f 123/1/5 116/1/5 122/1/5
f 123/2/5 117/2/5 116/2/5
f 123/2/5 118/2/5 117/2/5
f 124/2/5 119/2/5 123/2/5
f 125/2/5 119/2/5 124/2/5
f 126/2/5 122/2/5 100/2/5
f 126/2/5 123/2/5 122/2/5
f 126/2/5 124/2/5 123/2/5
f 127/2/5 124/2/5 126/2/5
f 128/2/5 124/2/5 127/2/5
f 129/2/5 124/2/5 128/2/5
f 130/1/5 127/1/5 126/1/5
f 131/2/5 128/2/5 127/2/5
f 131/1/5 127/1/5 130/1/5
f 132/2/5 128/2/5 131/2/5
f 133/1/6 134/1/6 136/1/6
f 134/2/6 135/2/6 137/2/6
f 136/1/6 134/1/6 137/1/6
f 137/2/6 135/2/6 138/2/6
f 136/2/6 137/2/6 140/2/6
f 138/2/6 139/2/6 140/2/6
f 137/2/6 138/2/6 140/2/6
f 140/2/6 139/2/6 141/2/6
f 141/2/6 139/2/6 142/2/6
f 140/1/6 141/1/6 144/1/6
f 142/2/6 143/2/6 145/2/6
f 144/1/6 141/1/6 145/1/6
f 141/2/6 142/2/6 145/2/6
f 145/2/6 143/2/6 146/2/6
f 146/2/6 143/2/6 147/2/6
f 147/2/6 143/2/6 148/2/6
f 140/1/6 144/1/6 151/1/6
f 146/1/6 147/1/6 153/1/6
f 148/2/6 149/2/6 154/2/6
f 147/2/6 148/2/6 154/2/6
f 153/1/6 147/1/6 154/1/6
f 154/2/6 149/2/6 155/2/6
f 149/1/6 150/1/6 156/1/6
f 155/2/6 149/2/6 156/2/6
f 156/1/6 150/1/6 157/1/6
f 136/2/6 140/2/6 158/2/6
f 151/1/6 152/1/6 158/1/6
f 140/1/6 151/1/6 158/1/6
f 154/2/6 155/2/6 159/2/6
f 158/1/6 152/1/6 159/1/6
f 152/2/6 153/2/6 159/2/6
f 153/2/6 154/2/6 159/2/6
f 159/2/6 155/2/6 160/2/6
f 160/2/6 155/2/6 161/2/6
f 136/2/6 158/2/6 162/2/6
f 158/2/6 159/2/6 162/2/6
f 159/2/6 160/2/6 162/2/6
f 162/2/6 160/2/6 163/2/6
f 163/2/6 160/2/6 164/2/6
f 164/2/6 160/2/6 165/2/6
f 162/1/6 163/1/6 166/1/6
f 163/2/6 164/2/6 167/2/6
f 166/1/6 163/1/6 167/1/6
f 167/2/6 164/2/6 168/2/6
