# Blender v3.3.1 OBJ File: 'Blue_Block.blend'
# www.blender.org
mtllib Blue_Block_remapped.mtl
o Cube
v 0.500000 0.510368 -0.500000
v 0.500000 -0.489632 -0.500000
v 0.500000 0.510368 0.500000
v 0.500000 -0.489632 0.500000
v -0.500000 0.510368 -0.500000
v -0.500000 -0.489632 -0.500000
v -0.500000 0.510368 0.500000
v -0.500000 -0.489632 0.500000
v -0.500000 -0.489632 -0.400000
v 0.500000 0.410368 -0.500000
v -0.500000 0.410368 0.500000
v 0.500000 0.410368 0.500000
v -0.500000 -0.389632 -0.500000
v -0.400000 0.510368 0.500000
v 0.400000 -0.489632 0.500000
v 0.400000 0.510368 -0.500000
v 0.500000 -0.489632 -0.400000
v -0.400000 -0.389632 -0.500000
v 0.400000 -0.389632 -0.500000
v -0.400000 -0.389632 -0.400000
v -0.400000 -0.389632 0.400000
v -0.400000 0.410368 -0.500000
v 0.400000 0.410368 -0.500000
v 0.500000 -0.389632 -0.400000
v 0.500000 -0.389632 0.400000
v 0.400000 -0.389632 -0.400000
v -0.400000 -0.389632 -0.400000
v 0.500000 0.410368 -0.400000
v 0.500000 0.410368 0.400000
v -0.500000 -0.389632 0.400000
v -0.500000 -0.389632 -0.400000
v 0.400000 0.410368 0.400000
v 0.400000 0.410368 -0.400000
v -0.500000 0.410368 0.400000
v -0.500000 0.410368 -0.400000
v 0.400000 -0.389632 0.500000
v -0.400000 -0.389632 0.500000
v 0.400000 0.410368 0.500000
v -0.400000 0.410368 0.500000
v 0.400000 0.510368 -0.400000
v 0.400000 0.510368 0.400000
v -0.400000 0.510368 -0.400000
v -0.400000 0.510368 0.400000
v 0.400000 -0.389632 0.400000
v -0.400000 -0.389632 0.400000
v 0.400000 0.410368 0.400000
v -0.400000 0.410368 0.400000
v 0.400000 -0.389632 -0.400000
v 0.400000 -0.389632 0.400000
v 0.400000 0.410368 -0.400000
v 0.400000 0.410368 0.400000
v -0.400000 0.410368 -0.400000
v 0.400000 0.410368 -0.400000
v -0.400000 0.410368 0.400000
v -0.400000 0.410368 -0.400000
v -0.400000 0.410368 -0.400000
v -0.400000 0.410368 0.400000
vt 0.031250 0.604167
vt 0.031250 0.770833
vt 0.000000 0.770833
vt 0.000000 0.583333
vt 0.312500 0.583333
vt 0.312500 0.604167
vt 0.281250 0.604167
vt 0.312500 0.791667
vt 0.031250 0.791667
vt 0.000000 0.791667
vt 0.281250 0.770833
vt 0.625000 0.395833
vt 0.656250 0.395833
vt 0.656250 0.562500
vt 0.625000 0.562500
vt 0.906250 0.375000
vt 0.906250 0.395833
vt 0.656250 0.375000
vt 0.906250 0.583333
vt 0.656250 0.583333
vt 0.906250 0.562500
vt 0.937500 0.395833
vt 0.937500 0.562500
vt 0.906250 0.604167
vt 0.656250 0.604167
vt 0.656250 0.770833
vt 0.625000 0.770833
vt 0.625000 0.583333
vt 0.906250 0.583333
vt 0.656250 0.604167
vt 0.906250 0.604167
vt 0.906250 0.770833
vt 0.656250 0.770833
vt 0.906250 0.375000
vt 0.906250 0.395833
vt 0.656250 0.395833
vt 0.656250 0.375000
vt 0.937500 0.395833
vt 0.937500 0.562500
vt 0.906250 0.562500
vt 0.906250 0.583333
vt 0.656250 0.583333
vt 0.656250 0.562500
vt 0.625000 0.395833
vt 0.625000 0.562500
vt 0.937500 0.791667
vt 0.625000 0.791667
vt 0.906250 0.770833
vt 0.937500 0.583333
vt 0.937500 0.770833
vt 0.625000 0.166667
vt 0.625000 0.187500
vt 0.625000 0.375000
vt 0.593750 0.375000
vt 0.312500 0.375000
vt 0.312500 0.187500
vt 0.312500 0.166667
vt 0.625000 0.375000
vt 0.625000 0.562500
vt 0.593750 0.562500
vt 0.593750 0.395833
vt 0.343750 0.395833
vt 0.343750 0.375000
vt 0.625000 0.395833
vt 0.656250 0.395833
vt 0.656250 0.562500
vt 0.625000 0.562500
vt 0.906250 0.583333
vt 0.656250 0.583333
vt 0.906250 0.562500
vt 0.906250 0.375000
vt 0.906250 0.395833
vt 0.656250 0.375000
vt 0.937500 0.395833
vt 0.937500 0.562500
vt 0.625000 0.583333
vt 0.312500 0.583333
vt 0.312500 0.395833
vt 0.312500 0.375000
vt 0.343750 0.562500
vt 0.343750 0.812500
vt 0.343750 0.979167
vt 0.343750 1.000000
vt 0.312500 1.000000
vt 0.312500 0.979167
vt 0.312500 0.791667
vt 0.593750 0.791667
vt 0.593750 0.812500
vt 0.625000 0.395833
vt 0.656250 0.395833
vt 0.656250 0.562500
vt 0.625000 0.562500
vt 0.906250 0.583333
vt 0.656250 0.583333
vt 0.906250 0.562500
vt 0.937500 0.395833
vt 0.937500 0.562500
vt 0.906250 0.395833
vt 0.625000 0.979167
vt 0.625000 1.000000
vt 0.593750 0.979167
vt 0.625000 0.791667
vt 0.343750 0.770833
vt 0.593750 0.770833
vt 0.593750 0.791667
vt 0.312500 0.791667
vt 0.312500 0.583333
vt 0.343750 0.583333
vt 0.343750 0.604167
vt 0.656250 0.395833
vt 0.656250 0.375000
vt 0.906250 0.375000
vt 0.906250 0.395833
vt 0.906250 0.395833
vt 0.656250 0.395833
vt 0.656250 0.375000
vt 0.906250 0.375000
vt 0.906250 0.375000
vt 0.906250 0.395833
vt 0.656250 0.395833
vt 0.656250 0.375000
vt 0.656250 0.375000
vt 0.906250 0.375000
vt 0.906250 0.395833
vt 0.656250 0.395833
vt 0.281250 0.604167
vt 0.281250 0.770833
vt 0.031250 0.770833
vt 0.031250 0.604167
vt 0.593750 0.395833
vt 0.593750 0.562500
vt 0.343750 0.562500
vt 0.343750 0.395833
vt 0.593750 0.812500
vt 0.593750 0.979167
vt 0.343750 0.979167
vt 0.343750 0.812500
vt 0.593750 0.770833
vt 0.343750 0.770833
vt 0.343750 0.604167
vt 0.593750 0.604167
vt 0.625000 0.791667
vt 0.593750 0.604167
vt 0.625000 0.583333
vt 0.906250 0.375000
vt 0.656250 0.375000
vn 0.0000 0.0000 -1.0000
vn -1.0000 0.0000 0.0000
vn 0.0000 1.0000 0.0000
vn 0.0000 -1.0000 0.0000
vn 1.0000 0.0000 0.0000
vn 0.0000 0.0000 1.0000
usemtl Material
s off
f 19/1/1 23/2/1 10/3/1 2/4/1 6/5/1 13/6/1 18/7/1
f 5/8/1 16/9/1 1/10/1 10/3/1 23/2/1 22/11/1 18/7/1 13/6/1
f 19/12/2 26/13/2 53/14/2 23/15/2
f 18/16/3 27/17/3 26/13/3 19/18/3
f 22/19/4 23/20/4 53/14/4 52/21/4
f 18/22/5 22/23/5 52/21/5 27/17/5
f 24/24/5 25/25/5 29/26/5 12/27/5 4/28/5 17/29/5
f 53/30/1 26/31/1 27/32/1 52/33/1
f 24/34/3 48/35/3 49/36/3 25/37/3
f 24/38/6 28/39/6 50/40/6 48/35/6
f 28/41/4 29/42/4 51/43/4 50/40/4
f 25/44/1 49/36/1 51/43/1 29/45/1
f 1/46/5 3/47/5 12/27/5 29/26/5 28/48/5 24/24/5 17/29/5 2/49/5 10/50/5
f 2/51/4 17/52/4 4/53/4 15/54/4 8/55/4 9/56/4 6/57/4
f 8/58/2 11/59/2 34/60/2 30/61/2 31/62/2 9/63/2
f 31/64/6 20/65/6 55/66/6 35/67/6
f 34/68/4 35/69/4 55/66/4 54/70/4
f 30/71/3 21/72/3 20/65/3 31/73/3
f 30/74/1 34/75/1 54/70/1 21/72/1
f 7/76/2 5/77/2 13/78/2 6/79/2 9/63/2 31/62/2 35/80/2 34/60/2 11/59/2
f 37/81/6 39/82/6 14/83/6 7/84/6 11/85/6 8/86/6 15/87/6 36/88/6
f 37/89/5 45/90/5 47/91/5 39/92/5
f 38/93/4 39/94/4 47/91/4 46/95/4
f 36/96/2 38/97/2 46/95/2 44/98/2
f 12/99/6 3/100/6 14/83/6 39/82/6 38/101/6 36/88/6 15/87/6 4/102/6
f 41/103/3 43/104/3 14/105/3 3/106/3 1/107/3 16/108/3 40/109/3
f 40/110/2 33/111/2 32/112/2 41/113/2
f 42/114/5 43/115/5 57/116/5 56/117/5
f 41/118/1 32/119/1 57/120/1 43/121/1
f 40/122/6 42/123/6 56/124/6 33/125/6
f 46/126/6 47/127/6 45/128/6 44/129/6
f 48/130/5 50/131/5 51/132/5 49/133/5
f 55/134/2 20/135/2 21/136/2 54/137/2
f 57/138/3 32/139/3 33/140/3 56/141/3
f 7/142/3 14/105/3 43/104/3 42/143/3 40/109/3 16/108/3 5/144/3
f 36/145/3 44/98/3 45/90/3 37/146/3
