# Blender v3.2.0 OBJ File: 'Red Lego.blend'
# www.blender.org
mtllib Red Lego.mtl
o Cube
v 0.500000 0.400000 -0.506297
v 0.398892 -0.500000 -0.405189
v 0.500000 0.400000 0.493703
v 0.398892 -0.500000 0.392595
v -0.500000 0.400000 -0.506297
v -0.398892 -0.500000 -0.405189
v -0.500000 0.400000 0.493703
v -0.398892 -0.500000 0.392595
v 0.100000 0.400000 0.493703
v -0.100000 0.400000 0.493703
v 0.500000 0.400000 -0.106297
v 0.500000 0.400000 0.093703
v -0.500000 0.400000 0.093703
v -0.500000 0.400000 -0.106297
v -0.100000 0.400000 -0.506297
v 0.100000 0.400000 -0.506297
v 0.400000 0.400000 -0.406297
v 0.400000 0.400000 -0.106297
v 0.400000 0.400000 0.093703
v 0.400000 0.400000 0.393703
v -0.100000 0.500000 -0.106297
v 0.400000 0.500000 -0.106297
v -0.100000 0.500000 -0.406297
v 0.400000 0.500000 -0.406297
v 0.100000 0.400000 -0.406297
v 0.100000 0.400000 -0.106297
v 0.100000 0.400000 0.093703
v 0.100000 0.400000 0.393703
v -0.100000 0.400000 -0.406297
v -0.100000 0.400000 -0.106297
v -0.100000 0.400000 0.093703
v -0.100000 0.400000 0.393703
v -0.400000 0.400000 -0.406297
v -0.400000 0.400000 -0.106297
v -0.400000 0.400000 0.093703
v -0.400000 0.400000 0.393703
v 0.400000 0.500000 0.093703
v 0.400000 0.500000 0.393703
v 0.100000 0.500000 0.093703
v 0.100000 0.500000 0.393703
v 0.100000 0.500000 -0.406297
v 0.100000 0.500000 -0.106297
v -0.400000 0.500000 -0.406297
v -0.400000 0.500000 -0.106297
v -0.100000 0.500000 0.093703
v -0.100000 0.500000 0.393703
v -0.400000 0.500000 0.093703
v -0.400000 0.500000 0.393703
vt 0.633333 0.250000
vt 0.666667 0.500000
vt 0.533333 0.500000
vt 0.466667 0.500000
vt 0.333333 0.500000
vt 0.366667 0.250000
vt 0.000000 0.525000
vt 0.333333 0.600000
vt 0.333333 0.650000
vt 0.333333 0.750000
vt 0.000000 0.725000
vt 0.666667 0.250000
vt 0.333333 0.250000
vt 0.333333 0.000000
vt 0.666667 0.000000
vt 1.000000 0.725000
vt 0.666667 0.750000
vt 0.666667 0.650000
vt 0.666667 0.600000
vt 1.000000 0.525000
vt 0.633333 0.250000
vt 0.666667 0.500000
vt 0.466667 0.500000
vt 0.533333 0.500000
vt 0.333333 0.500000
vt 0.366667 0.250000
vt 0.633333 0.600000
vt 0.633333 0.525000
vt 0.533333 0.525000
vt 0.633333 0.725000
vt 0.633333 0.650000
vt 0.533333 0.750000
vt 0.533333 0.725000
vt 0.833333 0.775000
vt 0.833333 0.800000
vt 0.733333 0.800000
vt 0.733333 0.775000
vt 0.833333 0.375000
vt 0.866667 0.375000
vt 0.866667 0.450000
vt 0.833333 0.450000
vt 0.866667 0.875000
vt 0.833333 0.875000
vt 0.866667 0.800000
vt 0.166667 0.775000
vt 0.266667 0.775000
vt 0.266667 0.800000
vt 0.166667 0.800000
vt 0.166667 0.450000
vt 0.266667 0.450000
vt 0.266667 0.475000
vt 0.166667 0.475000
vt 0.733333 0.450000
vt 0.833333 0.450000
vt 0.833333 0.475000
vt 0.733333 0.475000
vt 0.833333 0.350000
vt 0.733333 0.350000
vt 0.733333 0.375000
vt 0.833333 0.375000
vt 0.733333 0.875000
vt 0.833333 0.875000
vt 0.833333 0.900000
vt 0.733333 0.900000
vt 0.833333 0.800000
vt 0.866667 0.800000
vt 0.866667 0.875000
vt 0.166667 0.875000
vt 0.266667 0.875000
vt 0.266667 0.900000
vt 0.166667 0.900000
vt 0.266667 0.450000
vt 0.266667 0.375000
vt 0.300000 0.375000
vt 0.300000 0.450000
vt 0.266667 0.375000
vt 0.300000 0.375000
vt 0.300000 0.450000
vt 0.266667 0.800000
vt 0.300000 0.800000
vt 0.300000 0.875000
vt 0.266667 0.875000
vt 0.366667 0.600000
vt 0.466667 0.600000
vt 0.466667 0.525000
vt 0.533333 0.600000
vt 0.533333 0.650000
vt 0.466667 0.750000
vt 0.466667 0.725000
vt 0.466667 0.650000
vt 0.366667 0.650000
vt 0.266667 0.350000
vt 0.266667 0.375000
vt 0.166667 0.375000
vt 0.166667 0.350000
vt 0.366667 0.725000
vt 0.366667 0.525000
vt 0.733333 0.800000
vt 0.833333 0.800000
vt 0.833333 0.875000
vt 0.733333 0.875000
vt 0.866667 0.375000
vt 0.866667 0.450000
vt 0.833333 0.450000
vt 0.833333 0.375000
vt 0.266667 0.875000
vt 0.166667 0.875000
vt 0.166667 0.800000
vt 0.266667 0.800000
vt 0.266667 0.450000
vt 0.166667 0.450000
vt 0.266667 0.800000
vt 0.300000 0.800000
vt 0.300000 0.875000
vt 0.733333 0.450000
vt 0.733333 0.375000
vt 0.833333 0.450000
vn 0.0000 -0.1116 0.9937
vn -0.9937 -0.1116 0.0000
vn 0.0000 -1.0000 0.0000
vn 0.9937 -0.1116 0.0000
vn 0.0000 -0.1116 -0.9937
vn 0.0000 1.0000 0.0000
vn 0.0000 0.0000 1.0000
vn 1.0000 0.0000 0.0000
vn 0.0000 0.0000 -1.0000
vn -1.0000 0.0000 0.0000
usemtl Material
s off
f 4/1/1 3/2/1 9/3/1 10/4/1 7/5/1 8/6/1
f 8/7/2 7/5/2 13/8/2 14/9/2 5/10/2 6/11/2
f 6/12/3 2/13/3 4/14/3 8/15/3
f 2/16/4 1/17/4 11/18/4 12/19/4 3/2/4 4/20/4
f 6/21/5 5/22/5 15/23/5 16/24/5 1/25/5 2/26/5
f 19/27/6 20/28/6 28/29/6 9/3/6 3/2/6 12/19/6
f 17/30/6 18/31/6 11/18/6 1/17/6 16/32/6 25/33/6
f 18/34/7 22/35/7 42/36/7 26/37/7
f 19/38/8 37/39/8 38/40/8 20/41/8
f 17/42/8 24/43/8 22/35/8 18/44/8
f 30/45/7 21/46/7 44/47/7 34/48/7
f 31/49/9 35/50/9 47/51/9 45/52/9
f 19/53/9 27/54/9 39/55/9 37/56/9
f 28/57/7 20/58/7 38/59/7 40/60/7
f 17/61/9 25/62/9 41/63/9 24/64/9
f 25/62/10 26/65/10 42/66/10 41/67/10
f 29/68/9 33/69/9 43/70/9 23/71/9
f 31/72/8 45/73/8 46/74/8 32/75/8
f 35/50/10 36/76/10 48/77/10 47/78/10
f 29/79/8 23/80/8 21/81/8 30/82/8
f 13/8/6 35/83/6 31/84/6 32/85/6 10/4/6 9/3/6 28/29/6 27/86/6 19/27/6 12/19/6 11/18/6 18/31/6 26/87/6 25/33/6 16/32/6 15/88/6 29/89/6 30/90/6 34/91/6 14/9/6
f 32/92/7 46/93/7 48/94/7 36/95/7
f 14/9/6 34/91/6 33/96/6 29/89/6 15/88/6 5/10/6
f 32/85/6 36/97/6 35/83/6 13/8/6 7/5/6 10/4/6
f 24/98/6 41/99/6 42/100/6 22/101/6
f 27/102/10 28/103/10 40/104/10 39/105/10
f 23/106/6 43/107/6 44/108/6 21/109/6
f 45/110/6 47/111/6 48/94/6 46/93/6
f 33/69/10 34/112/10 44/113/10 43/114/10
f 37/115/6 39/116/6 40/60/6 38/117/6
