# Blender 3.2.1
# www.blender.org
mtllib untitled.mtl
o Cylinder.012
v -0.785909 0.140167 -0.529341
v -0.785909 -0.016263 -0.529341
v -0.163115 0.140167 -0.974217
v -0.163115 -0.016263 -0.974217
v 0.591841 0.140167 -0.848409
v 0.591841 -0.016263 -0.848409
v 1.036717 0.140167 -0.225615
v 1.036717 -0.016263 -0.225615
v 0.910909 0.140167 0.529341
v 0.910909 -0.016263 0.529341
v 0.288115 0.140167 0.974217
v 0.288115 -0.016263 0.974217
v -0.466841 0.140167 0.848409
v -0.466841 -0.016263 0.848409
v -0.911716 0.140167 0.225615
v -0.911716 -0.016263 0.225615
vn 0.5813 -0.0000 0.8137
vn -0.1644 -0.0000 0.9864
vn -0.8137 -0.0000 0.5813
vn -0.9864 -0.0000 -0.1644
vn -0.5813 -0.0000 -0.8137
vn 0.1644 -0.0000 -0.9864
vn -0.0000 1.0000 -0.0000
vn 0.8137 -0.0000 -0.5813
vn 0.9864 -0.0000 0.1644
vn -0.0000 -1.0000 -0.0000
vt 0.593750 0.718750
vt 0.609375 0.812500
vt 0.515625 1.000000
vt 0.593750 0.781250
vt 0.687500 1.000000
vt 0.609375 0.828125
vt 0.562500 0.718750
vt 0.609375 0.828125
vt 0.578125 1.000000
vt 0.562500 0.781250
vt 0.609375 0.812500
vt 0.750000 1.000000
vt 0.687500 0.828125
vt 0.484375 0.828125
vt 0.625000 0.953125
vt 0.687500 0.812500
vt 0.484375 0.812500
vt 0.796875 0.953125
vt 0.546875 0.828125
vt 0.687500 0.812500
vt 0.625000 0.890625
vt 0.546875 0.812500
vt 0.687500 0.828125
vt 0.796875 0.890625
vt 0.609375 0.812500
vt 0.546875 0.718750
vt 0.578125 0.843750
vt 0.609375 0.828125
vt 0.546875 0.781250
vt 0.750000 0.843750
vt 0.515625 0.718750
vt 0.656250 0.812500
vt 0.515625 0.843750
vt 0.515625 0.781250
vt 0.656250 0.828125
vt 0.687500 0.843750
vt 0.578125 0.812500
vt 0.546875 0.812500
vt 0.468750 0.890625
vt 0.578125 0.828125
vt 0.640625 0.890625
vt 0.546875 0.828125
vt 0.484375 0.812500
vt 0.687500 0.812500
vt 0.468750 0.953125
vt 0.640625 0.953125
vt 0.484375 0.828125
vt 0.687500 0.828125
s 0
usemtl green-filled.002
f 1/1/1 2/4/1 4/10/1 3/7/1
f 3/8/2 4/11/2 6/16/2 5/13/2
f 5/14/3 6/17/3 8/22/3 7/19/3
f 7/20/4 8/23/4 10/28/4 9/25/4
f 9/26/5 10/29/5 12/34/5 11/31/5
f 11/32/6 12/35/6 14/40/6 13/37/6
f 4/12/7 2/5/7 16/46/7 14/41/7 12/36/7 10/30/7 8/24/7 6/18/7
f 13/38/8 14/42/8 16/47/8 15/43/8
f 15/44/9 16/48/9 2/6/9 1/2/9
f 1/3/10 3/9/10 5/15/10 7/21/10 9/27/10 11/33/10 13/39/10 15/45/10
