# Blender 3.2.1
# www.blender.org
mtllib plus.mtl
o plus
v -0.400000 0.050000 0.100000
v -0.400000 -0.050000 0.000000
v -0.400000 -0.050000 0.100000
v -0.400000 0.050000 0.000000
v -0.400000 -0.050000 -0.100000
v -0.400000 0.050000 -0.100000
v -0.100000 0.050000 0.400000
v -0.100000 -0.050000 0.200000
v -0.100000 -0.050000 0.400000
v -0.100000 0.050000 0.200000
v -0.100000 -0.050000 0.100000
v -0.100000 0.050000 0.100000
v -0.100000 0.050000 -0.100000
v -0.100000 -0.050000 -0.200000
v -0.100000 -0.050000 -0.100000
v -0.100000 0.050000 -0.200000
v -0.100000 -0.050000 -0.300000
v -0.100000 0.050000 -0.300000
v -0.100000 -0.050000 -0.400000
v -0.100000 0.050000 -0.400000
v 0.100000 -0.050000 0.400000
v 0.100000 -0.050000 0.300000
v 0.100000 0.050000 0.400000
v 0.100000 -0.050000 0.200000
v 0.100000 0.050000 0.300000
v 0.100000 -0.050000 0.100000
v 0.100000 0.050000 0.200000
v 0.100000 0.050000 0.100000
v 0.100000 -0.050000 -0.100000
v 0.100000 -0.050000 -0.200000
v 0.100000 0.050000 -0.100000
v 0.100000 -0.050000 -0.400000
v 0.100000 0.050000 -0.200000
v 0.100000 0.050000 -0.400000
v 0.400000 -0.050000 0.100000
v 0.400000 -0.050000 0.000000
v 0.400000 0.050000 0.100000
v 0.400000 -0.050000 -0.100000
v 0.400000 0.050000 0.000000
v 0.400000 0.050000 -0.100000
v 0.000000 -0.050000 0.400000
v -0.100000 0.050000 0.400000
v -0.100000 -0.050000 0.400000
v 0.000000 0.050000 0.400000
v 0.100000 -0.050000 0.400000
v 0.100000 0.050000 0.400000
v -0.100000 -0.050000 0.100000
v -0.400000 0.050000 0.100000
v -0.400000 -0.050000 0.100000
v -0.100000 0.050000 0.100000
v 0.300000 -0.050000 0.100000
v 0.100000 0.050000 0.100000
v 0.100000 -0.050000 0.100000
v 0.300000 0.050000 0.100000
v 0.400000 -0.050000 0.100000
v 0.400000 0.050000 0.100000
v -0.400000 -0.050000 -0.100000
v -0.400000 0.050000 -0.100000
v -0.300000 -0.050000 -0.100000
v -0.300000 0.050000 -0.100000
v -0.100000 -0.050000 -0.100000
v -0.100000 0.050000 -0.100000
v 0.100000 -0.050000 -0.100000
v 0.100000 0.050000 -0.100000
v 0.400000 -0.050000 -0.100000
v 0.400000 0.050000 -0.100000
v -0.100000 -0.050000 -0.400000
v -0.100000 0.050000 -0.400000
v 0.000000 -0.050000 -0.400000
v 0.000000 0.050000 -0.400000
v 0.100000 -0.050000 -0.400000
v 0.100000 0.050000 -0.400000
v 0.000000 -0.050000 0.300000
v 0.000000 -0.050000 0.400000
v -0.100000 -0.050000 0.400000
v 0.100000 -0.050000 0.400000
v 0.100000 -0.050000 0.300000
v -0.100000 -0.050000 0.200000
v 0.100000 -0.050000 0.200000
v -0.100000 -0.050000 0.100000
v 0.100000 -0.050000 0.100000
v -0.400000 -0.050000 0.000000
v -0.400000 -0.050000 0.100000
v 0.300000 -0.050000 0.100000
v -0.300000 -0.050000 0.000000
v 0.300000 -0.050000 0.000000
v 0.400000 -0.050000 0.100000
v 0.400000 -0.050000 0.000000
v -0.400000 -0.050000 -0.100000
v -0.300000 -0.050000 -0.100000
v -0.100000 -0.050000 -0.100000
v 0.100000 -0.050000 -0.100000
v 0.400000 -0.050000 -0.100000
v -0.100000 -0.050000 -0.200000
v 0.100000 -0.050000 -0.200000
v -0.100000 -0.050000 -0.300000
v 0.000000 -0.050000 -0.300000
v -0.100000 -0.050000 -0.400000
v 0.000000 -0.050000 -0.400000
v 0.100000 -0.050000 -0.400000
v -0.100000 0.050000 0.400000
v 0.000000 0.050000 0.400000
v 0.000000 0.050000 0.300000
v 0.100000 0.050000 0.400000
v 0.100000 0.050000 0.300000
v -0.100000 0.050000 0.200000
v 0.100000 0.050000 0.200000
v -0.100000 0.050000 0.100000
v 0.100000 0.050000 0.100000
v -0.400000 0.050000 0.000000
v -0.400000 0.050000 0.100000
v 0.300000 0.050000 0.100000
v -0.300000 0.050000 0.000000
v 0.400000 0.050000 0.100000
v 0.300000 0.050000 0.000000
v 0.400000 0.050000 0.000000
v -0.400000 0.050000 -0.100000
v -0.300000 0.050000 -0.100000
v -0.100000 0.050000 -0.100000
v 0.100000 0.050000 -0.100000
v 0.400000 0.050000 -0.100000
v -0.100000 0.050000 -0.200000
v 0.100000 0.050000 -0.200000
v -0.100000 0.050000 -0.300000
v 0.000000 0.050000 -0.300000
v -0.100000 0.050000 -0.400000
v 0.000000 0.050000 -0.400000
v 0.100000 0.050000 -0.400000
vn -1.0000 -0.0000 -0.0000
vn 1.0000 -0.0000 -0.0000
vn -0.0000 -0.0000 1.0000
vn -0.0000 -0.0000 -1.0000
vn -0.0000 -1.0000 -0.0000
vn -0.0000 1.0000 -0.0000
vt 0.005859 0.500000
vt 0.009766 0.500000
vt 0.005859 0.500000
vt 0.005859 0.500000
vt 0.005859 0.500000
vt 0.009766 0.500000
vt 0.009766 0.500000
vt 0.009766 0.500000
vt 0.005859 0.500000
vt 0.009766 0.500000
vt 0.005859 0.500000
vt 0.005859 0.500000
vt 0.005859 0.500000
vt 0.009766 0.500000
vt 0.009766 0.500000
vt 0.009766 0.500000
vt 0.009766 0.500000
vt 0.005859 0.500000
vt 0.009766 0.500000
vt 0.009766 0.500000
vt 0.009766 0.500000
vt 0.005859 0.500000
vt 0.009766 0.500000
vt 0.005859 0.500000
vt 0.005859 0.500000
vt 0.009766 0.500000
vt 0.009766 0.500000
vt 0.009766 0.500000
vt 0.009766 0.500000
vt 0.005859 0.500000
vt 0.009766 0.500000
vt 0.009766 0.500000
vt 0.009766 0.500000
vt 0.005859 0.500000
vt 0.009766 0.500000
vt 0.005859 0.500000
vt 0.009766 0.500000
vt 0.005859 0.500000
vt 0.009766 0.500000
vt 0.009766 0.500000
vt 0.009766 0.500000
vt 0.005859 0.500000
vt 0.009766 0.500000
vt 0.009766 0.500000
vt 0.005859 0.500000
vt 0.009766 0.500000
vt 0.005859 0.500000
vt 0.005859 0.500000
vt 0.009766 0.500000
vt 0.005859 0.500000
vt 0.009766 0.500000
vt 0.009766 0.500000
vt 0.005859 0.500000
vt 0.009766 0.500000
vt 0.005859 0.500000
vt 0.005859 0.500000
vt 0.005859 0.500000
vt 0.009766 0.500000
vt 0.005859 0.500000
vt 0.005859 0.500000
vt 0.005859 0.500000
vt 0.009766 0.500000
vt 0.009766 0.500000
vt 0.009766 0.500000
vt 0.005859 0.500000
vt 0.005859 0.500000
vt 0.005859 0.500000
vt 0.005859 0.500000
vt 0.005859 0.500000
vt 0.009766 0.500000
vt 0.005859 0.500000
vt 0.005859 0.500000
vt 0.005859 0.500000
vt 0.009766 0.500000
vt 0.009766 0.500000
vt 0.009766 0.500000
vt 0.009766 0.500000
vt 0.009766 0.500000
vt 0.009766 0.500000
vt 0.005859 0.500000
vt 0.009766 0.500000
vt 0.005859 0.500000
vt 0.005859 0.500000
vt 0.005859 0.500000
vt 0.005859 0.500000
vt 0.005859 0.500000
vt 0.005859 0.500000
vt 0.005859 0.500000
vt 0.009766 0.500000
vt 0.009766 0.500000
vt 0.009766 0.500000
vt 0.005859 0.500000
vt 0.009766 0.500000
vt 0.005859 0.500000
vt 0.005859 0.500000
vt 0.005859 0.500000
vt 0.009766 0.500000
vt 0.005859 0.500000
vt 0.005859 0.500000
vt 0.009766 0.500000
vt 0.005859 0.500000
vt 0.009766 0.500000
vt 0.009766 0.500000
vt 0.005859 0.500000
vt 0.005859 0.500000
vt 0.009766 0.500000
vt 0.005859 0.500000
vt 0.009766 0.500000
vt 0.009766 0.500000
vt 0.005859 0.500000
vt 0.009766 0.500000
vt 0.005859 0.500000
vt 0.005859 0.500000
vt 0.009766 0.500000
vt 0.005859 0.500000
vt 0.009766 0.500000
vt 0.005859 0.500000
vt 0.005859 0.500000
vt 0.009766 0.500000
vt 0.009766 0.500000
vt 0.005859 0.500000
vt 0.009766 0.500000
vt 0.009766 0.500000
vt 0.005859 0.500000
vt 0.009766 0.500000
vt 0.009766 0.500000
vt 0.005859 0.500000
vt 0.005859 0.500000
vt 0.009766 0.500000
vt 0.005859 0.500000
vt 0.009766 0.500000
vt 0.005859 0.500000
vt 0.009766 0.500000
vt 0.005859 0.500000
vt 0.009766 0.500000
vt 0.005859 0.500000
vt 0.005859 0.500000
vt 0.009766 0.500000
vt 0.005859 0.500000
vt 0.009766 0.500000
vt 0.009766 0.500000
vt 0.009766 0.500000
vt 0.005859 0.500000
vt 0.005859 0.500000
vt 0.005859 0.500000
vt 0.005859 0.500000
vt 0.009766 0.500000
vt 0.009766 0.500000
vt 0.005859 0.500000
vt 0.009766 0.500000
vt 0.009766 0.500000
vt 0.005859 0.500000
vt 0.005859 0.500000
vt 0.009766 0.500000
vt 0.005859 0.500000
vt 0.009766 0.500000
vt 0.009766 0.500000
vt 0.005859 0.500000
vt 0.009766 0.500000
vt 0.005859 0.500000
vt 0.005859 0.500000
vt 0.009766 0.500000
vt 0.005859 0.500000
vt 0.009766 0.500000
vt 0.005859 0.500000
vt 0.005859 0.500000
vt 0.009766 0.500000
vt 0.009766 0.500000
vt 0.009766 0.500000
vt 0.005859 0.500000
vt 0.009766 0.500000
vt 0.005859 0.500000
vt 0.009766 0.500000
vt 0.009766 0.500000
vt 0.005859 0.500000
vt 0.005859 0.500000
vt 0.009766 0.500000
vt 0.005859 0.500000
vt 0.009766 0.500000
vt 0.005859 0.500000
vt 0.009766 0.500000
vt 0.005859 0.500000
vt 0.009766 0.500000
vt 0.005859 0.500000
vt 0.005859 0.500000
vt 0.009766 0.500000
vt 0.005859 0.500000
vt 0.009766 0.500000
vt 0.009766 0.500000
vt 0.009766 0.500000
vt 0.005859 0.500000
vt 0.005859 0.500000
s 1
usemtl palette.004
f 1/1/1 2/3/1 3/4/1
f 4/6/1 5/7/1 2/2/1
f 4/5/1 2/3/1 1/1/1
f 6/8/1 5/7/1 4/6/1
f 7/9/1 8/11/1 9/12/1
f 10/14/1 11/15/1 8/10/1
f 10/13/1 8/11/1 7/9/1
f 12/16/1 11/15/1 10/14/1
f 13/17/1 14/19/1 15/20/1
f 16/22/1 17/24/1 14/18/1
f 16/21/1 14/19/1 13/17/1
f 18/26/1 19/27/1 17/23/1
f 18/25/1 17/24/1 16/22/1
f 20/28/1 19/27/1 18/26/1
f 21/29/2 22/31/2 23/32/2
f 22/30/2 24/34/2 25/36/2
f 23/32/2 22/31/2 25/35/2
f 24/33/2 26/37/2 27/39/2
f 25/36/2 24/34/2 27/38/2
f 27/39/2 26/37/2 28/40/2
f 29/41/2 30/43/2 31/44/2
f 30/42/2 32/45/2 33/47/2
f 31/44/2 30/43/2 33/46/2
f 33/47/2 32/45/2 34/48/2
f 35/49/2 36/51/2 37/52/2
f 36/50/2 38/53/2 39/55/2
f 37/52/2 36/51/2 39/54/2
f 39/55/2 38/53/2 40/56/2
f 41/57/3 42/59/3 43/60/3
f 44/61/3 42/59/3 41/57/3
f 45/63/3 44/62/3 41/58/3
f 46/64/3 44/62/3 45/63/3
f 47/65/3 48/66/3 49/67/3
f 50/68/3 48/66/3 47/65/3
f 51/69/3 52/71/3 53/72/3
f 54/73/3 52/71/3 51/69/3
f 55/75/3 54/74/3 51/70/3
f 56/76/3 54/74/3 55/75/3
f 57/77/4 58/78/4 59/79/4
f 59/79/4 58/78/4 60/81/4
f 59/80/4 60/82/4 61/83/4
f 61/83/4 60/82/4 62/84/4
f 63/85/4 64/86/4 65/87/4
f 65/87/4 64/86/4 66/88/4
f 67/89/4 68/90/4 69/91/4
f 69/91/4 68/90/4 70/93/4
f 69/92/4 70/94/4 71/95/4
f 71/95/4 70/94/4 72/96/4
f 73/98/5 74/99/5 75/101/5
f 73/97/5 76/102/5 74/100/5
f 77/103/5 76/102/5 73/97/5
f 78/105/5 73/98/5 75/101/5
f 78/105/5 77/104/5 73/98/5
f 79/107/5 77/104/5 78/105/5
f 80/109/5 79/108/5 78/106/5
f 81/111/5 79/108/5 80/109/5
f 82/113/5 81/112/5 80/110/5
f 82/113/5 80/110/5 83/115/5
f 82/113/5 84/117/5 81/112/5
f 85/118/5 84/117/5 82/113/5
f 86/120/5 87/122/5 84/116/5
f 86/121/5 84/117/5 85/118/5
f 88/123/5 87/122/5 86/120/5
f 89/125/5 85/119/5 82/114/5
f 90/127/5 86/121/5 85/118/5
f 90/126/5 85/119/5 89/125/5
f 90/127/5 88/124/5 86/121/5
f 91/128/5 88/124/5 90/127/5
f 92/130/5 88/124/5 91/128/5
f 93/132/5 88/124/5 92/130/5
f 94/133/5 92/131/5 91/129/5
f 95/135/5 92/131/5 94/133/5
f 96/137/5 95/136/5 94/134/5
f 97/139/5 95/136/5 96/137/5
f 98/141/5 97/140/5 96/138/5
f 99/143/5 95/136/5 97/139/5
f 99/142/5 97/140/5 98/141/5
f 100/144/5 95/136/5 99/143/5
f 101/145/6 102/146/6 103/149/6
f 102/147/6 104/150/6 103/148/6
f 103/148/6 104/150/6 105/151/6
f 101/145/6 103/149/6 106/153/6
f 103/149/6 105/152/6 106/153/6
f 106/153/6 105/152/6 107/155/6
f 106/154/6 107/156/6 108/157/6
f 108/157/6 107/156/6 109/159/6
f 108/158/6 109/160/6 110/161/6
f 111/163/6 108/158/6 110/161/6
f 109/160/6 112/165/6 110/161/6
f 110/161/6 112/165/6 113/166/6
f 112/164/6 114/168/6 115/169/6
f 113/166/6 112/165/6 115/170/6
f 115/169/6 114/168/6 116/171/6
f 110/162/6 113/167/6 117/173/6
f 113/166/6 115/170/6 118/175/6
f 117/173/6 113/167/6 118/174/6
f 115/170/6 116/172/6 118/175/6
f 118/175/6 116/172/6 119/176/6
f 119/176/6 116/172/6 120/178/6
f 120/178/6 116/172/6 121/180/6
f 119/177/6 120/179/6 122/181/6
f 122/181/6 120/179/6 123/183/6
f 122/182/6 123/184/6 124/185/6
f 124/185/6 123/184/6 125/187/6
f 124/186/6 125/188/6 126/189/6
f 125/187/6 123/184/6 127/191/6
f 126/189/6 125/188/6 127/190/6
f 127/191/6 123/184/6 128/192/6
