# Blender v3.2.1 OBJ File: ''
# www.blender.org
mtllib square.mtl
o square
v -0.400000 0.050000 0.400000
v -0.400000 -0.050000 0.300000
v -0.400000 -0.050000 0.400000
v -0.400000 0.050000 0.300000
v -0.400000 -0.050000 -0.300000
v -0.400000 0.050000 -0.300000
v -0.400000 -0.050000 -0.400000
v -0.400000 0.050000 -0.400000
v 0.200000 0.050000 0.200000
v 0.200000 -0.050000 -0.200000
v 0.200000 -0.050000 0.200000
v 0.200000 0.050000 -0.200000
v -0.200000 -0.050000 0.200000
v -0.200000 -0.050000 -0.200000
v -0.200000 0.050000 0.200000
v -0.200000 0.050000 -0.200000
v 0.400000 -0.050000 0.400000
v 0.400000 -0.050000 0.300000
v 0.400000 0.050000 0.400000
v 0.400000 -0.050000 -0.300000
v 0.400000 0.050000 0.300000
v 0.400000 -0.050000 -0.400000
v 0.400000 0.050000 -0.300000
v 0.400000 0.050000 -0.400000
v -0.300000 -0.050000 0.400000
v -0.400000 0.050000 0.400000
v -0.400000 -0.050000 0.400000
v -0.300000 0.050000 0.400000
v 0.300000 -0.050000 0.400000
v 0.300000 0.050000 0.400000
v 0.400000 -0.050000 0.400000
v 0.400000 0.050000 0.400000
v 0.200000 -0.050000 -0.200000
v -0.200000 0.050000 -0.200000
v -0.200000 -0.050000 -0.200000
v 0.200000 0.050000 -0.200000
v -0.200000 -0.050000 0.200000
v -0.200000 0.050000 0.200000
v 0.200000 -0.050000 0.200000
v 0.200000 0.050000 0.200000
v -0.400000 -0.050000 -0.400000
v -0.400000 0.050000 -0.400000
v -0.300000 -0.050000 -0.400000
v -0.300000 0.050000 -0.400000
v 0.300000 -0.050000 -0.400000
v 0.300000 0.050000 -0.400000
v 0.400000 -0.050000 -0.400000
v 0.400000 0.050000 -0.400000
v -0.400000 -0.050000 0.300000
v -0.300000 -0.050000 0.400000
v -0.400000 -0.050000 0.400000
v -0.300000 -0.050000 0.300000
v 0.300000 -0.050000 0.400000
v -0.200000 -0.050000 0.300000
v 0.200000 -0.050000 0.300000
v 0.300000 -0.050000 0.300000
v 0.400000 -0.050000 0.400000
v 0.400000 -0.050000 0.300000
v -0.300000 -0.050000 0.200000
v -0.200000 -0.050000 0.200000
v 0.200000 -0.050000 0.200000
v 0.300000 -0.050000 0.200000
v -0.300000 -0.050000 -0.200000
v -0.200000 -0.050000 -0.200000
v 0.200000 -0.050000 -0.200000
v 0.300000 -0.050000 -0.200000
v -0.400000 -0.050000 -0.300000
v -0.300000 -0.050000 -0.300000
v -0.200000 -0.050000 -0.300000
v 0.200000 -0.050000 -0.300000
v 0.300000 -0.050000 -0.300000
v 0.400000 -0.050000 -0.300000
v -0.400000 -0.050000 -0.400000
v -0.300000 -0.050000 -0.400000
v 0.300000 -0.050000 -0.400000
v 0.400000 -0.050000 -0.400000
v -0.400000 0.050000 0.400000
v -0.300000 0.050000 0.400000
v -0.400000 0.050000 0.300000
v 0.300000 0.050000 0.400000
v -0.300000 0.050000 0.300000
v -0.200000 0.050000 0.300000
v 0.200000 0.050000 0.300000
v 0.400000 0.050000 0.400000
v 0.300000 0.050000 0.300000
v 0.400000 0.050000 0.300000
v -0.300000 0.050000 0.200000
v -0.200000 0.050000 0.200000
v 0.200000 0.050000 0.200000
v 0.300000 0.050000 0.200000
v -0.300000 0.050000 -0.200000
v -0.200000 0.050000 -0.200000
v 0.200000 0.050000 -0.200000
v 0.300000 0.050000 -0.200000
v -0.400000 0.050000 -0.300000
v -0.300000 0.050000 -0.300000
v -0.200000 0.050000 -0.300000
v 0.200000 0.050000 -0.300000
v 0.300000 0.050000 -0.300000
v 0.400000 0.050000 -0.300000
v -0.400000 0.050000 -0.400000
v -0.300000 0.050000 -0.400000
v 0.300000 0.050000 -0.400000
v 0.400000 0.050000 -0.400000
vt 0.029297 0.500000
vt 0.029297 0.500000
vt 0.029297 0.500000
vt 0.033203 0.500000
vt 0.033203 0.500000
vt 0.033203 0.500000
vt 0.029297 0.500000
vt 0.029297 0.500000
vt 0.029297 0.500000
vt 0.029297 0.500000
vt 0.033203 0.500000
vt 0.029297 0.500000
vt 0.033203 0.500000
vt 0.033203 0.500000
vt 0.033203 0.500000
vt 0.033203 0.500000
vt 0.033203 0.500000
vt 0.033203 0.500000
vt 0.033203 0.500000
vt 0.033203 0.500000
vt 0.029297 0.500000
vt 0.029297 0.500000
vt 0.029297 0.500000
vt 0.033203 0.500000
vt 0.033203 0.500000
vt 0.033203 0.500000
vt 0.029297 0.500000
vt 0.029297 0.500000
vt 0.029297 0.500000
vt 0.029297 0.500000
vt 0.033203 0.500000
vt 0.029297 0.500000
vt 0.029297 0.500000
vt 0.029297 0.500000
vt 0.029297 0.500000
vt 0.029297 0.500000
vt 0.033203 0.500000
vt 0.033203 0.500000
vt 0.033203 0.500000
vt 0.033203 0.500000
vt 0.029297 0.500000
vt 0.029297 0.500000
vt 0.029297 0.500000
vt 0.029297 0.500000
vt 0.033203 0.500000
vt 0.033203 0.500000
vt 0.033203 0.500000
vt 0.033203 0.500000
vt 0.033203 0.500000
vt 0.033203 0.500000
vt 0.033203 0.500000
vt 0.033203 0.500000
vt 0.029297 0.500000
vt 0.029297 0.500000
vt 0.029297 0.500000
vt 0.029297 0.500000
vt 0.033203 0.500000
vt 0.033203 0.500000
vt 0.033203 0.500000
vt 0.033203 0.500000
vt 0.029297 0.500000
vt 0.029297 0.500000
vt 0.029297 0.500000
vt 0.029297 0.500000
vt 0.029297 0.500000
vt 0.029297 0.500000
vt 0.029297 0.500000
vt 0.033203 0.500000
vt 0.033203 0.500000
vt 0.033203 0.500000
vt 0.029297 0.500000
vt 0.033203 0.500000
vt 0.033203 0.500000
vt 0.029297 0.500000
vt 0.029297 0.500000
vt 0.029297 0.500000
vt 0.033203 0.500000
vt 0.029297 0.500000
vt 0.033203 0.500000
vt 0.033203 0.500000
vt 0.029297 0.500000
vt 0.029297 0.500000
vt 0.033203 0.500000
vt 0.029297 0.500000
vt 0.029297 0.500000
vt 0.029297 0.500000
vt 0.033203 0.500000
vt 0.033203 0.500000
vt 0.033203 0.500000
vt 0.029297 0.500000
vt 0.033203 0.500000
vt 0.033203 0.500000
vt 0.033203 0.500000
vt 0.033203 0.500000
vt 0.033203 0.500000
vt 0.029297 0.500000
vt 0.029297 0.500000
vt 0.029297 0.500000
vt 0.033203 0.500000
vt 0.033203 0.500000
vt 0.029297 0.500000
vt 0.029297 0.500000
vt 0.029297 0.500000
vt 0.029297 0.500000
vt 0.033203 0.500000
vt 0.033203 0.500000
vt 0.029297 0.500000
vt 0.033203 0.500000
vt 0.029297 0.500000
vt 0.029297 0.500000
vt 0.033203 0.500000
vt 0.029297 0.500000
vt 0.029297 0.500000
vt 0.029297 0.500000
vt 0.033203 0.500000
vt 0.029297 0.500000
vt 0.029297 0.500000
vt 0.029297 0.500000
vt 0.029297 0.500000
vt 0.033203 0.500000
vt 0.033203 0.500000
vt 0.033203 0.500000
vt 0.029297 0.500000
vt 0.033203 0.500000
vt 0.033203 0.500000
vt 0.029297 0.500000
vt 0.029297 0.500000
vt 0.029297 0.500000
vt 0.033203 0.500000
vt 0.029297 0.500000
vt 0.033203 0.500000
vt 0.033203 0.500000
vt 0.029297 0.500000
vt 0.029297 0.500000
vt 0.033203 0.500000
vt 0.029297 0.500000
vt 0.029297 0.500000
vt 0.029297 0.500000
vt 0.033203 0.500000
vt 0.033203 0.500000
vt 0.033203 0.500000
vt 0.029297 0.500000
vt 0.033203 0.500000
vt 0.033203 0.500000
vt 0.033203 0.500000
vt 0.033203 0.500000
vt 0.033203 0.500000
vt 0.029297 0.500000
vt 0.029297 0.500000
vt 0.029297 0.500000
vt 0.033203 0.500000
vt 0.033203 0.500000
vt 0.029297 0.500000
vt 0.029297 0.500000
vt 0.029297 0.500000
vt 0.029297 0.500000
vt 0.033203 0.500000
vt 0.033203 0.500000
vt 0.029297 0.500000
vt 0.033203 0.500000
vt 0.029297 0.500000
vt 0.029297 0.500000
vt 0.033203 0.500000
vt 0.029297 0.500000
vt 0.029297 0.500000
vt 0.029297 0.500000
vt 0.033203 0.500000
vt 0.029297 0.500000
vn -1.0000 0.0000 0.0000
vn 1.0000 -0.0000 0.0000
vn 0.0000 0.0000 1.0000
vn 0.0000 0.0000 -1.0000
vn -0.0000 -1.0000 -0.0000
vn 0.0000 1.0000 0.0000
usemtl palette
s 1
f 1/1/1 2/2/1 3/3/1
f 4/4/1 5/5/1 2/6/1
f 4/7/1 2/2/1 1/1/1
f 6/8/1 7/9/1 5/10/1
f 6/11/1 5/5/1 4/4/1
f 8/12/1 7/9/1 6/8/1
f 9/13/1 10/14/1 11/15/1
f 12/16/1 10/14/1 9/13/1
f 13/17/2 14/18/2 15/19/2
f 15/19/2 14/18/2 16/20/2
f 17/21/2 18/22/2 19/23/2
f 18/24/2 20/25/2 21/26/2
f 19/23/2 18/22/2 21/27/2
f 20/28/2 22/29/2 23/30/2
f 21/26/2 20/25/2 23/31/2
f 23/30/2 22/29/2 24/32/2
f 25/33/3 26/34/3 27/35/3
f 28/36/3 26/34/3 25/33/3
f 29/37/3 28/38/3 25/39/3
f 30/40/3 28/38/3 29/37/3
f 31/41/3 30/42/3 29/43/3
f 32/44/3 30/42/3 31/41/3
f 33/45/3 34/46/3 35/47/3
f 36/48/3 34/46/3 33/45/3
f 37/49/4 38/50/4 39/51/4
f 39/51/4 38/50/4 40/52/4
f 41/53/4 42/54/4 43/55/4
f 43/55/4 42/54/4 44/56/4
f 43/57/4 44/58/4 45/59/4
f 45/59/4 44/58/4 46/60/4
f 45/61/4 46/62/4 47/63/4
f 47/63/4 46/62/4 48/64/4
f 49/65/5 50/66/5 51/67/5
f 52/68/5 53/69/5 50/70/5
f 52/71/5 50/66/5 49/65/5
f 54/72/5 53/69/5 52/68/5
f 55/73/5 53/69/5 54/72/5
f 56/74/5 57/75/5 53/76/5
f 56/77/5 53/69/5 55/73/5
f 58/78/5 57/75/5 56/74/5
f 59/79/5 52/68/5 49/80/5
f 59/81/5 54/82/5 52/71/5
f 60/83/5 55/73/5 54/72/5
f 60/84/5 54/82/5 59/81/5
f 61/85/5 56/74/5 55/86/5
f 61/87/5 55/73/5 60/83/5
f 62/88/5 58/89/5 56/77/5
f 62/90/5 56/74/5 61/85/5
f 63/91/5 59/79/5 49/80/5
f 63/91/5 60/83/5 59/79/5
f 64/92/5 60/83/5 63/91/5
f 65/93/5 62/88/5 61/87/5
f 66/94/5 58/89/5 62/88/5
f 66/94/5 62/88/5 65/93/5
f 67/95/5 63/91/5 49/80/5
f 68/96/5 64/97/5 63/98/5
f 68/99/5 63/91/5 67/95/5
f 69/100/5 65/93/5 64/92/5
f 69/101/5 64/97/5 68/96/5
f 70/102/5 66/103/5 65/104/5
f 70/105/5 65/93/5 69/100/5
f 71/106/5 58/89/5 66/94/5
f 71/107/5 66/103/5 70/102/5
f 72/108/5 58/89/5 71/106/5
f 73/109/5 68/96/5 67/110/5
f 74/111/5 70/105/5 69/100/5
f 74/112/5 68/96/5 73/109/5
f 74/111/5 69/100/5 68/99/5
f 74/111/5 71/106/5 70/105/5
f 75/113/5 72/114/5 71/107/5
f 75/115/5 71/106/5 74/111/5
f 76/116/5 72/114/5 75/113/5
f 77/117/6 78/118/6 79/119/6
f 78/120/6 80/121/6 81/122/6
f 79/119/6 78/118/6 81/123/6
f 81/122/6 80/121/6 82/124/6
f 82/124/6 80/121/6 83/125/6
f 80/126/6 84/127/6 85/128/6
f 83/125/6 80/121/6 85/129/6
f 85/128/6 84/127/6 86/130/6
f 79/131/6 81/122/6 87/132/6
f 81/123/6 82/133/6 87/134/6
f 82/124/6 83/125/6 88/135/6
f 87/134/6 82/133/6 88/136/6
f 83/137/6 85/128/6 89/138/6
f 88/135/6 83/125/6 89/139/6
f 85/129/6 86/140/6 90/141/6
f 89/138/6 85/128/6 90/142/6
f 79/131/6 87/132/6 91/143/6
f 87/132/6 88/135/6 91/143/6
f 91/143/6 88/135/6 92/144/6
f 89/139/6 90/141/6 93/145/6
f 90/141/6 86/140/6 94/146/6
f 93/145/6 90/141/6 94/146/6
f 79/131/6 91/143/6 95/147/6
f 91/148/6 92/149/6 96/150/6
f 95/147/6 91/143/6 96/151/6
f 92/144/6 93/145/6 97/152/6
f 96/150/6 92/149/6 97/153/6
f 93/154/6 94/155/6 98/156/6
f 97/152/6 93/145/6 98/157/6
f 94/146/6 86/140/6 99/158/6
f 98/156/6 94/155/6 99/159/6
f 99/158/6 86/140/6 100/160/6
f 95/161/6 96/150/6 101/162/6
f 97/152/6 98/157/6 102/163/6
f 101/162/6 96/150/6 102/164/6
f 96/151/6 97/152/6 102/163/6
f 98/157/6 99/158/6 102/163/6
f 99/159/6 100/165/6 103/166/6
f 102/163/6 99/158/6 103/167/6
f 103/166/6 100/165/6 104/168/6
