# Blender 3.2.1
# www.blender.org
mtllib triangle.mtl
o triangle
v -0.400000 0.050000 0.400000
v -0.400000 -0.050000 0.300000
v -0.400000 -0.050000 0.400000
v -0.400000 0.050000 0.300000
v -0.400000 -0.050000 -0.300000
v -0.400000 0.050000 -0.300000
v -0.400000 -0.050000 -0.400000
v -0.400000 0.050000 -0.400000
v 0.000000 0.050000 0.100000
v 0.000000 -0.050000 -0.100000
v 0.000000 -0.050000 0.100000
v 0.000000 0.050000 -0.100000
v -0.200000 -0.050000 0.400000
v -0.200000 -0.050000 0.300000
v -0.200000 0.050000 0.400000
v -0.200000 0.050000 0.300000
v -0.200000 -0.050000 0.100000
v -0.200000 -0.050000 -0.100000
v -0.200000 0.050000 0.100000
v -0.200000 0.050000 -0.100000
v -0.200000 -0.050000 -0.300000
v -0.200000 -0.050000 -0.400000
v -0.200000 0.050000 -0.300000
v -0.200000 0.050000 -0.400000
v 0.000000 -0.050000 0.300000
v 0.000000 -0.050000 0.200000
v 0.000000 0.050000 0.300000
v 0.000000 0.050000 0.200000
v 0.000000 -0.050000 -0.200000
v 0.000000 -0.050000 -0.300000
v 0.000000 0.050000 -0.200000
v 0.000000 0.050000 -0.300000
v 0.200000 -0.050000 0.200000
v 0.200000 -0.050000 0.100000
v 0.200000 0.050000 0.200000
v 0.200000 0.050000 0.100000
v 0.200000 -0.050000 -0.100000
v 0.200000 -0.050000 -0.200000
v 0.200000 0.050000 -0.100000
v 0.200000 0.050000 -0.200000
v 0.400000 -0.050000 0.100000
v 0.400000 -0.050000 -0.100000
v 0.400000 0.050000 0.100000
v 0.400000 0.050000 -0.100000
v -0.300000 -0.050000 0.400000
v -0.400000 0.050000 0.400000
v -0.400000 -0.050000 0.400000
v -0.300000 0.050000 0.400000
v -0.200000 -0.050000 0.400000
v -0.200000 0.050000 0.400000
v 0.000000 -0.050000 0.300000
v -0.200000 0.050000 0.300000
v -0.200000 -0.050000 0.300000
v 0.000000 0.050000 0.300000
v 0.200000 -0.050000 0.200000
v 0.000000 0.050000 0.200000
v 0.000000 -0.050000 0.200000
v 0.200000 0.050000 0.200000
v 0.300000 -0.050000 0.100000
v 0.200000 0.050000 0.100000
v 0.200000 -0.050000 0.100000
v 0.300000 0.050000 0.100000
v 0.400000 -0.050000 0.100000
v 0.400000 0.050000 0.100000
v -0.100000 -0.050000 -0.100000
v -0.200000 0.050000 -0.100000
v -0.200000 -0.050000 -0.100000
v -0.100000 0.050000 -0.100000
v 0.000000 -0.050000 -0.100000
v 0.000000 0.050000 -0.100000
v -0.200000 -0.050000 0.100000
v -0.200000 0.050000 0.100000
v -0.100000 -0.050000 0.100000
v -0.100000 0.050000 0.100000
v 0.000000 -0.050000 0.100000
v 0.000000 0.050000 0.100000
v 0.200000 -0.050000 -0.100000
v 0.200000 0.050000 -0.100000
v 0.300000 -0.050000 -0.100000
v 0.300000 0.050000 -0.100000
v 0.400000 -0.050000 -0.100000
v 0.400000 0.050000 -0.100000
v 0.000000 -0.050000 -0.200000
v 0.000000 0.050000 -0.200000
v 0.200000 -0.050000 -0.200000
v 0.200000 0.050000 -0.200000
v -0.200000 -0.050000 -0.300000
v -0.200000 0.050000 -0.300000
v 0.000000 -0.050000 -0.300000
v 0.000000 0.050000 -0.300000
v -0.400000 -0.050000 -0.400000
v -0.400000 0.050000 -0.400000
v -0.300000 -0.050000 -0.400000
v -0.300000 0.050000 -0.400000
v -0.200000 -0.050000 -0.400000
v -0.200000 0.050000 -0.400000
v -0.400000 -0.050000 0.300000
v -0.300000 -0.050000 0.400000
v -0.400000 -0.050000 0.400000
v -0.300000 -0.050000 0.300000
v -0.200000 -0.050000 0.400000
v -0.200000 -0.050000 0.300000
v -0.300000 -0.050000 0.200000
v 0.000000 -0.050000 0.300000
v -0.100000 -0.050000 0.200000
v 0.000000 -0.050000 0.200000
v -0.200000 -0.050000 0.100000
v -0.100000 -0.050000 0.100000
v 0.200000 -0.050000 0.200000
v 0.000000 -0.050000 0.100000
v 0.100000 -0.050000 0.100000
v 0.200000 -0.050000 0.100000
v -0.200000 -0.050000 -0.100000
v 0.000000 -0.050000 -0.100000
v 0.100000 -0.050000 -0.100000
v 0.300000 -0.050000 0.100000
v 0.200000 -0.050000 -0.100000
v 0.300000 -0.050000 -0.100000
v 0.400000 -0.050000 0.100000
v 0.400000 -0.050000 -0.100000
v -0.300000 -0.050000 -0.200000
v -0.100000 -0.050000 -0.100000
v -0.100000 -0.050000 -0.200000
v 0.000000 -0.050000 -0.200000
v 0.200000 -0.050000 -0.200000
v -0.400000 -0.050000 -0.300000
v -0.300000 -0.050000 -0.300000
v -0.200000 -0.050000 -0.300000
v 0.000000 -0.050000 -0.300000
v -0.400000 -0.050000 -0.400000
v -0.300000 -0.050000 -0.400000
v -0.200000 -0.050000 -0.400000
v -0.400000 0.050000 0.400000
v -0.300000 0.050000 0.400000
v -0.400000 0.050000 0.300000
v -0.200000 0.050000 0.400000
v -0.300000 0.050000 0.300000
v -0.200000 0.050000 0.300000
v -0.300000 0.050000 0.200000
v 0.000000 0.050000 0.300000
v -0.100000 0.050000 0.200000
v 0.000000 0.050000 0.200000
v -0.200000 0.050000 0.100000
v 0.200000 0.050000 0.200000
v -0.100000 0.050000 0.100000
v 0.000000 0.050000 0.100000
v 0.100000 0.050000 0.100000
v 0.200000 0.050000 0.100000
v -0.200000 0.050000 -0.100000
v 0.000000 0.050000 -0.100000
v 0.300000 0.050000 0.100000
v 0.100000 0.050000 -0.100000
v 0.200000 0.050000 -0.100000
v 0.400000 0.050000 0.100000
v 0.300000 0.050000 -0.100000
v 0.400000 0.050000 -0.100000
v -0.300000 0.050000 -0.200000
v -0.100000 0.050000 -0.100000
v -0.100000 0.050000 -0.200000
v 0.000000 0.050000 -0.200000
v 0.200000 0.050000 -0.200000
v -0.400000 0.050000 -0.300000
v -0.300000 0.050000 -0.300000
v -0.200000 0.050000 -0.300000
v 0.000000 0.050000 -0.300000
v -0.400000 0.050000 -0.400000
v -0.300000 0.050000 -0.400000
v -0.200000 0.050000 -0.400000
vn -1.0000 -0.0000 -0.0000
vn 1.0000 -0.0000 -0.0000
vn -0.0000 -0.0000 1.0000
vn -0.0000 -0.0000 -1.0000
vn -0.0000 -1.0000 -0.0000
vn -0.0000 1.0000 -0.0000
vt 0.013672 0.500000
vt 0.017578 0.500000
vt 0.013672 0.500000
vt 0.013672 0.500000
vt 0.013672 0.500000
vt 0.017578 0.500000
vt 0.013672 0.500000
vt 0.017578 0.500000
vt 0.017578 0.500000
vt 0.013672 0.500000
vt 0.013672 0.500000
vt 0.013672 0.500000
vt 0.013672 0.500000
vt 0.013672 0.500000
vt 0.013672 0.500000
vt 0.013672 0.500000
vt 0.017578 0.500000
vt 0.017578 0.500000
vt 0.017578 0.500000
vt 0.017578 0.500000
vt 0.013672 0.500000
vt 0.013672 0.500000
vt 0.013672 0.500000
vt 0.013672 0.500000
vt 0.017578 0.500000
vt 0.017578 0.500000
vt 0.017578 0.500000
vt 0.017578 0.500000
vt 0.017578 0.500000
vt 0.017578 0.500000
vt 0.017578 0.500000
vt 0.017578 0.500000
vt 0.017578 0.500000
vt 0.017578 0.500000
vt 0.017578 0.500000
vt 0.017578 0.500000
vt 0.017578 0.500000
vt 0.017578 0.500000
vt 0.017578 0.500000
vt 0.017578 0.500000
vt 0.017578 0.500000
vt 0.017578 0.500000
vt 0.017578 0.500000
vt 0.017578 0.500000
vt 0.013672 0.500000
vt 0.013672 0.500000
vt 0.013672 0.500000
vt 0.013672 0.500000
vt 0.013672 0.500000
vt 0.017578 0.500000
vt 0.013672 0.500000
vt 0.013672 0.500000
vt 0.013672 0.500000
vt 0.017578 0.500000
vt 0.017578 0.500000
vt 0.017578 0.500000
vt 0.017578 0.500000
vt 0.017578 0.500000
vt 0.017578 0.500000
vt 0.017578 0.500000
vt 0.017578 0.500000
vt 0.017578 0.500000
vt 0.017578 0.500000
vt 0.017578 0.500000
vt 0.017578 0.500000
vt 0.013672 0.500000
vt 0.017578 0.500000
vt 0.017578 0.500000
vt 0.017578 0.500000
vt 0.013672 0.500000
vt 0.013672 0.500000
vt 0.013672 0.500000
vt 0.013672 0.500000
vt 0.017578 0.500000
vt 0.013672 0.500000
vt 0.013672 0.500000
vt 0.013672 0.500000
vt 0.017578 0.500000
vt 0.017578 0.500000
vt 0.017578 0.500000
vt 0.013672 0.500000
vt 0.013672 0.500000
vt 0.013672 0.500000
vt 0.017578 0.500000
vt 0.013672 0.500000
vt 0.017578 0.500000
vt 0.017578 0.500000
vt 0.017578 0.500000
vt 0.017578 0.500000
vt 0.017578 0.500000
vt 0.017578 0.500000
vt 0.013672 0.500000
vt 0.017578 0.500000
vt 0.013672 0.500000
vt 0.013672 0.500000
vt 0.013672 0.500000
vt 0.017578 0.500000
vt 0.017578 0.500000
vt 0.017578 0.500000
vt 0.017578 0.500000
vt 0.017578 0.500000
vt 0.017578 0.500000
vt 0.017578 0.500000
vt 0.017578 0.500000
vt 0.013672 0.500000
vt 0.013672 0.500000
vt 0.013672 0.500000
vt 0.017578 0.500000
vt 0.013672 0.500000
vt 0.017578 0.500000
vt 0.017578 0.500000
vt 0.017578 0.500000
vt 0.013672 0.500000
vt 0.017578 0.500000
vt 0.017578 0.500000
vt 0.013672 0.500000
vt 0.013672 0.500000
vt 0.013672 0.500000
vt 0.017578 0.500000
vt 0.017578 0.500000
vt 0.017578 0.500000
vt 0.017578 0.500000
vt 0.013672 0.500000
vt 0.017578 0.500000
vt 0.013672 0.500000
vt 0.017578 0.500000
vt 0.017578 0.500000
vt 0.013672 0.500000
vt 0.013672 0.500000
vt 0.017578 0.500000
vt 0.017578 0.500000
vt 0.017578 0.500000
vt 0.013672 0.500000
vt 0.017578 0.500000
vt 0.013672 0.500000
vt 0.017578 0.500000
vt 0.013672 0.500000
vt 0.013672 0.500000
vt 0.017578 0.500000
vt 0.013672 0.500000
vt 0.017578 0.500000
vt 0.013672 0.500000
vt 0.017578 0.500000
vt 0.017578 0.500000
vt 0.017578 0.500000
vt 0.013672 0.500000
vt 0.013672 0.500000
vt 0.013672 0.500000
vt 0.013672 0.500000
vt 0.017578 0.500000
vt 0.013672 0.500000
vt 0.017578 0.500000
vt 0.013672 0.500000
vt 0.017578 0.500000
vt 0.017578 0.500000
vt 0.017578 0.500000
vt 0.017578 0.500000
vt 0.013672 0.500000
vt 0.017578 0.500000
vt 0.013672 0.500000
vt 0.017578 0.500000
vt 0.017578 0.500000
vt 0.013672 0.500000
vt 0.013672 0.500000
vt 0.017578 0.500000
vt 0.017578 0.500000
vt 0.013672 0.500000
vt 0.017578 0.500000
vt 0.013672 0.500000
vt 0.013672 0.500000
vt 0.017578 0.500000
vt 0.017578 0.500000
vt 0.013672 0.500000
vt 0.017578 0.500000
vt 0.017578 0.500000
vt 0.017578 0.500000
vt 0.013672 0.500000
vt 0.017578 0.500000
vt 0.013672 0.500000
vt 0.017578 0.500000
vt 0.017578 0.500000
vt 0.013672 0.500000
vt 0.017578 0.500000
vt 0.013672 0.500000
vt 0.017578 0.500000
vt 0.017578 0.500000
vt 0.013672 0.500000
vt 0.017578 0.500000
vt 0.013672 0.500000
vt 0.017578 0.500000
vt 0.013672 0.500000
vt 0.013672 0.500000
vt 0.017578 0.500000
vt 0.013672 0.500000
vt 0.017578 0.500000
vt 0.013672 0.500000
vt 0.017578 0.500000
vt 0.017578 0.500000
vt 0.013672 0.500000
vt 0.017578 0.500000
vt 0.013672 0.500000
vt 0.013672 0.500000
vt 0.013672 0.500000
vt 0.017578 0.500000
vt 0.013672 0.500000
vt 0.017578 0.500000
vt 0.013672 0.500000
vt 0.017578 0.500000
vt 0.017578 0.500000
vt 0.017578 0.500000
vt 0.017578 0.500000
vt 0.013672 0.500000
vt 0.017578 0.500000
vt 0.013672 0.500000
vt 0.017578 0.500000
vt 0.017578 0.500000
vt 0.013672 0.500000
vt 0.013672 0.500000
vt 0.017578 0.500000
vt 0.017578 0.500000
s 1
usemtl palette.002
f 1/1/1 2/3/1 3/4/1
f 4/6/1 5/8/1 2/2/1
f 4/5/1 2/3/1 1/1/1
f 6/10/1 7/11/1 5/7/1
f 6/9/1 5/8/1 4/6/1
f 8/12/1 7/11/1 6/10/1
f 9/13/1 10/14/1 11/15/1
f 12/16/1 10/14/1 9/13/1
f 13/17/2 14/18/2 15/19/2
f 15/19/2 14/18/2 16/20/2
f 17/21/2 18/22/2 19/23/2
f 19/23/2 18/22/2 20/24/2
f 21/25/2 22/26/2 23/27/2
f 23/27/2 22/26/2 24/28/2
f 25/29/2 26/30/2 27/31/2
f 27/31/2 26/30/2 28/32/2
f 29/33/2 30/34/2 31/35/2
f 31/35/2 30/34/2 32/36/2
f 33/37/2 34/38/2 35/39/2
f 35/39/2 34/38/2 36/40/2
f 37/41/2 38/42/2 39/43/2
f 39/43/2 38/42/2 40/44/2
f 41/45/2 42/46/2 43/47/2
f 43/47/2 42/46/2 44/48/2
f 45/49/3 46/51/3 47/52/3
f 48/53/3 46/51/3 45/49/3
f 49/55/3 48/54/3 45/50/3
f 50/56/3 48/54/3 49/55/3
f 51/57/3 52/58/3 53/59/3
f 54/60/3 52/58/3 51/57/3
f 55/61/3 56/62/3 57/63/3
f 58/64/3 56/62/3 55/61/3
f 59/65/3 60/67/3 61/68/3
f 62/69/3 60/67/3 59/65/3
f 63/71/3 62/70/3 59/66/3
f 64/72/3 62/70/3 63/71/3
f 65/73/3 66/75/3 67/76/3
f 68/77/3 66/75/3 65/73/3
f 69/79/3 68/78/3 65/74/3
f 70/80/3 68/78/3 69/79/3
f 71/81/4 72/82/4 73/83/4
f 73/83/4 72/82/4 74/85/4
f 73/84/4 74/86/4 75/87/4
f 75/87/4 74/86/4 76/88/4
f 77/89/4 78/90/4 79/91/4
f 79/91/4 78/90/4 80/93/4
f 79/92/4 80/94/4 81/95/4
f 81/95/4 80/94/4 82/96/4
f 83/97/4 84/98/4 85/99/4
f 85/99/4 84/98/4 86/100/4
f 87/101/4 88/102/4 89/103/4
f 89/103/4 88/102/4 90/104/4
f 91/105/4 92/106/4 93/107/4
f 93/107/4 92/106/4 94/109/4
f 93/108/4 94/110/4 95/111/4
f 95/111/4 94/110/4 96/112/4
f 97/113/5 98/116/5 99/117/5
f 100/119/5 101/120/5 98/115/5
f 100/118/5 98/116/5 97/113/5
f 102/121/5 101/120/5 100/119/5
f 103/122/5 100/119/5 97/114/5
f 103/122/5 104/124/5 102/121/5
f 103/122/5 102/121/5 100/119/5
f 105/126/5 104/124/5 103/122/5
f 106/127/5 104/124/5 105/126/5
f 107/128/5 105/125/5 103/123/5
f 108/130/5 109/131/5 106/127/5
f 108/129/5 105/125/5 107/128/5
f 108/130/5 106/127/5 105/126/5
f 110/132/5 109/131/5 108/130/5
f 111/134/5 109/131/5 110/132/5
f 112/136/5 109/131/5 111/134/5
f 113/137/5 107/128/5 103/123/5
f 114/138/5 111/135/5 110/133/5
f 115/141/5 116/143/5 112/136/5
f 115/141/5 112/136/5 111/134/5
f 115/140/5 111/135/5 114/138/5
f 117/144/5 116/143/5 115/141/5
f 118/146/5 119/147/5 116/142/5
f 118/145/5 116/143/5 117/144/5
f 120/148/5 119/147/5 118/146/5
f 121/150/5 103/122/5 97/114/5
f 121/149/5 122/151/5 113/137/5
f 121/149/5 113/137/5 103/123/5
f 123/154/5 117/144/5 115/141/5
f 123/153/5 122/151/5 121/149/5
f 123/154/5 114/139/5 122/152/5
f 123/154/5 115/141/5 114/139/5
f 124/155/5 117/144/5 123/154/5
f 125/156/5 117/144/5 124/155/5
f 126/157/5 121/150/5 97/114/5
f 126/157/5 123/154/5 121/150/5
f 126/157/5 124/155/5 123/154/5
f 127/159/5 124/155/5 126/157/5
f 128/161/5 124/155/5 127/159/5
f 129/162/5 124/155/5 128/161/5
f 130/163/5 127/160/5 126/158/5
f 131/165/5 128/161/5 127/159/5
f 131/164/5 127/160/5 130/163/5
f 132/166/5 128/161/5 131/165/5
f 133/167/6 134/169/6 135/170/6
f 134/168/6 136/172/6 137/174/6
f 135/170/6 134/169/6 137/173/6
f 137/174/6 136/172/6 138/175/6
f 135/171/6 137/174/6 139/176/6
f 138/175/6 140/178/6 139/176/6
f 137/174/6 138/175/6 139/176/6
f 139/176/6 140/178/6 141/180/6
f 141/180/6 140/178/6 142/181/6
f 139/177/6 141/179/6 143/182/6
f 142/181/6 144/183/6 145/185/6
f 143/182/6 141/179/6 145/184/6
f 141/180/6 142/181/6 145/185/6
f 145/185/6 144/183/6 146/186/6
f 146/186/6 144/183/6 147/188/6
f 147/188/6 144/183/6 148/190/6
f 139/177/6 143/182/6 149/191/6
f 146/187/6 147/189/6 150/192/6
f 148/190/6 151/195/6 152/197/6
f 147/188/6 148/190/6 152/197/6
f 150/192/6 147/189/6 152/196/6
f 152/197/6 151/195/6 153/198/6
f 151/194/6 154/199/6 155/201/6
f 153/198/6 151/195/6 155/200/6
f 155/201/6 154/199/6 156/202/6
f 135/171/6 139/176/6 157/204/6
f 149/191/6 158/205/6 157/203/6
f 139/177/6 149/191/6 157/203/6
f 152/197/6 153/198/6 159/208/6
f 157/203/6 158/205/6 159/207/6
f 158/206/6 150/193/6 159/208/6
f 150/193/6 152/197/6 159/208/6
f 159/208/6 153/198/6 160/209/6
f 160/209/6 153/198/6 161/210/6
f 135/171/6 157/204/6 162/211/6
f 157/204/6 159/208/6 162/211/6
f 159/208/6 160/209/6 162/211/6
f 162/211/6 160/209/6 163/213/6
f 163/213/6 160/209/6 164/215/6
f 164/215/6 160/209/6 165/216/6
f 162/212/6 163/214/6 166/217/6
f 163/213/6 164/215/6 167/219/6
f 166/217/6 163/214/6 167/218/6
f 167/219/6 164/215/6 168/220/6
